<?xml version="1.0" encoding="UTF-8" standalone="no"?>
<!-- Created with Inkscape (http://www.inkscape.org/) -->

<svg
   xmlns:dc="http://purl.org/dc/elements/1.1/"
   xmlns:cc="http://creativecommons.org/ns#"
   xmlns:rdf="http://www.w3.org/1999/02/22-rdf-syntax-ns#"
   xmlns:svg="http://www.w3.org/2000/svg"
   xmlns="http://www.w3.org/2000/svg"
   xmlns:sodipodi="http://sodipodi.sourceforge.net/DTD/sodipodi-0.dtd"
   xmlns:inkscape="http://www.inkscape.org/namespaces/inkscape"
   width="33mm"
   height="33mm"
   viewBox="0 0 32.999999 32.999999"
   version="1.1"
   id="svg165"
   inkscape:version="0.92.3 (2405546, 2018-03-11)"
   sodipodi:docname="icon.svg"
   inkscape:export-filename="C:\Users\drhut10\Desktop\icon.png"
   inkscape:export-xdpi="260.09601"
   inkscape:export-ydpi="260.09601">
  <defs
     id="defs159">
    <inkscape:perspective
       sodipodi:type="inkscape:persp3d"
       inkscape:vp_x="0 : 16.5 : 1"
       inkscape:vp_y="0 : 1000 : 0"
       inkscape:vp_z="32.999999 : 16.5 : 1"
       inkscape:persp3d-origin="16.5 : 11 : 1"
       id="perspective1410" />
    <filter
       style="color-interpolation-filters:sRGB"
       inkscape:label="Drop Shadow"
       id="filter1396">
      <feFlood
         flood-opacity="0.498039"
         flood-color="rgb(0,0,0)"
         result="flood"
         id="feFlood1386" />
      <feComposite
         in="flood"
         in2="SourceGraphic"
         operator="in"
         result="composite1"
         id="feComposite1388" />
      <feGaussianBlur
         in="composite1"
         stdDeviation="4"
         result="blur"
         id="feGaussianBlur1390" />
      <feOffset
         dx="10"
         dy="-5"
         result="offset"
         id="feOffset1392" />
      <feComposite
         in="SourceGraphic"
         in2="offset"
         operator="over"
         result="composite2"
         id="feComposite1394" />
    </filter>
  </defs>
  <sodipodi:namedview
     id="base"
     pagecolor="#ffffff"
     bordercolor="#666666"
     borderopacity="1.0"
     inkscape:pageopacity="0.0"
     inkscape:pageshadow="2"
     inkscape:zoom="3.959798"
     inkscape:cx="121.28128"
     inkscape:cy="77.074365"
     inkscape:document-units="mm"
     inkscape:current-layer="layer1"
     showgrid="false"
     fit-margin-top="0"
     fit-margin-left="0"
     fit-margin-right="0"
     fit-margin-bottom="0"
     inkscape:window-width="1920"
     inkscape:window-height="1000"
     inkscape:window-x="-11"
     inkscape:window-y="-11"
     inkscape:window-maximized="1"
     inkscape:pagecheckerboard="true" />
  <metadata
     id="metadata162">
    <rdf:RDF>
      <cc:Work
         rdf:about="">
        <dc:format>image/svg+xml</dc:format>
        <dc:type
           rdf:resource="http://purl.org/dc/dcmitype/StillImage" />
        <dc:title></dc:title>
      </cc:Work>
    </rdf:RDF>
  </metadata>
  <g
     inkscape:label="Layer 1"
     inkscape:groupmode="layer"
     id="layer1"
     transform="translate(52.971659,-210.73197)">
    <rect
       style="fill:#4b1d17;fill-opacity:1;stroke-width:0.26442635"
       id="rect864"
       width="32.98782"
       height="32.988041"
       x="-53.085751"
       y="210.71893"
       ry="4.97686"
       transform="matrix(0.99999986,-5.2042447e-4,5.2891399e-4,0.99999986,0,0)" />
    <g
       transform="matrix(0.17842657,0,0,-0.17842657,-723.86814,421.42697)"
       id="g196"
       style="fill:#ffeeaa">
      <path
         d="m 3860.1918,1127.0881 c 5.7984,5.5733 10.4267,9.0345 13.2141,9.0345 4.4951,0 9.5736,-4.6742 10.1571,-10.1127 -0.853,1.4381 -2.2467,1.8424 -3.4153,1.8424 -3.8212,0 -12.7194,-8.4954 -23.2824,-21.2591 -3.4596,-3.956 -6.6958,-8.2243 -10.4266,-13.0793 3.2361,0.1807 6.0679,0.2695 8.8538,0.2695 19.4167,0 26.4725,-3.8196 25.889,-3.8656 -0.6739,-0.2235 -4.0448,0.7643 -11.7316,0.7643 -3.6404,0 -8.2687,-0.1348 -13.8419,-0.7643 -4.4047,-0.5391 -8.9901,-1.2573 -13.4392,-2.0216 -20.6741,-27.8218 -40.316,-60.1371 -40.316,-69.0812 0,-0.9434 0.4043,-1.5269 0.9893,-1.5269 2.7415,0 4.4491,1.5269 6.4279,2.8302 -2.1135,-2.7414 -6.2027,-6.1567 -8.5398,-6.1567 -1.844,0 -3.8212,2.4275 -3.8212,5.1229 0,13.4836 12.9889,40.1813 28.9444,64.6766 -17.4824,-5.5288 -30.8772,-13.2585 -30.4269,-18.4718 0.1348,-2.2483 -4.3603,3.1902 -4.6742,6.022 -0.8547,10.2919 22.5625,17.2144 40.5395,20.2698 8.6746,12.6306 17.484,24.0006 28.9,35.507 z m 95.8678,11.73 c -3.1014,1.1685 -35.9558,7.3713 -66.6078,7.3713 -68.3614,0 -113.7116,-29.7975 -113.7116,-44.9443 0,-8.6746 13.9323,-12.4055 14.9217,-12.9445 0,0 -0.1348,-0.1792 -0.5835,-0.1792 -8.451,0 -22.7877,3.4597 -22.6973,15.28 0.4931,29.3043 58.4279,48.2264 118.519,48.2264 26.5629,0 61.0361,-6.6958 70.9237,-11.9995 1.798,-1.0338 0.1792,-1.2145 -0.7642,-0.8102 z"
         style="fill:#ffeeaa;fill-opacity:1;fill-rule:evenodd;stroke:none;stroke-width:1.58555996;filter:url(#filter1396)"
         id="path198"
         inkscape:connector-curvature="0"
         sodipodi:nodetypes="cscsccscsccsscssccccccsscscscc" />
    </g>
  </g>
  <g
     inkscape:groupmode="layer"
     id="layer3"
     inkscape:label="Layer 3"
     transform="translate(52.971659,-210.73197)" />
  <g
     inkscape:groupmode="layer"
     id="layer2"
     inkscape:label="Layer 2"
     transform="translate(52.971659,-210.73197)" />
</svg>
