<svg viewBox="0 0 33 33" xmlns="http://www.w3.org/2000/svg" xmlns:xlink="http://www.w3.org/1999/xlink"><filter id="a" color-interpolation-filters="sRGB"><feFlood flood-opacity=".498" result="flood"/><feComposite in="flood" in2="SourceGraphic" operator="in" result="composite1"/><feGaussianBlur in="composite1" result="blur" stdDeviation="4"/><feOffset dx="10" dy="-5" result="offset"/><feComposite in="SourceGraphic" in2="offset" result="composite2"/></filter><rect fill="#fef7c4" height="32.988" ry="4.977" transform="matrix(1 -.00052 .00053 1 52.971659 -210.73197)" width="32.988" x="-53.086" y="210.719"/><path d="m3860.1918 1127.0881c5.7984 5.5733 10.4267 9.0345 13.2141 9.0345 4.4951 0 9.5736-4.6742 10.1571-10.1127-.853 1.4381-2.2467 1.8424-3.4153 1.8424-3.8212 0-12.7194-8.4954-23.2824-21.2591-3.4596-3.956-6.6958-8.2243-10.4266-13.0793 3.2361.1807 6.0679.2695 8.8538.2695 19.4167 0 26.4725-3.8196 25.889-3.8656-.6739-.2235-4.0448.7643-11.7316.7643-3.6404 0-8.2687-.1348-13.8419-.7643-4.4047-.5391-8.9901-1.2573-13.4392-2.0216-20.6741-27.8218-40.316-60.1371-40.316-69.0812 0-.9434.4043-1.5269.9893-1.5269 2.7415 0 4.4491 1.5269 6.4279 2.8302-2.1135-2.7414-6.2027-6.1567-8.5398-6.1567-1.844 0-3.8212 2.4275-3.8212 5.1229 0 13.4836 12.9889 40.1813 28.9444 64.6766-17.4824-5.5288-30.8772-13.2585-30.4269-18.4718.1348-2.2483-4.3603 3.1902-4.6742 6.022-.8547 10.2919 22.5625 17.2144 40.5395 20.2698 8.6746 12.6306 17.484 24.0006 28.9 35.507zm95.8678 11.73c-3.1014 1.1685-35.9558 7.3713-66.6078 7.3713-68.3614 0-113.7116-29.7975-113.7116-44.9443 0-8.6746 13.9323-12.4055 14.9217-12.9445 0 0-.1348-.1792-.5835-.1792-8.451 0-22.7877 3.4597-22.6973 15.28.4931 29.3043 58.4279 48.2264 118.519 48.2264 26.5629 0 61.0361-6.6958 70.9237-11.9995 1.798-1.0338.1792-1.2145-.7642-.8102z" fill="#fea" fill-rule="evenodd" filter="url(#a)" transform="matrix(.17843 0 0 -.17843 -670.896481 210.695)"/></svg>