<svg id="Layer_1" data-name="Layer 1" xmlns="http://www.w3.org/2000/svg" viewBox="0 0 595.08 169.95"><defs><style>.cls-1{fill:#373737;}.cls-2{fill:#2778b3;}.cls-3{fill:#074578;}</style></defs><title>Artboard 1</title><path class="cls-1" d="M296.84,67.09a25.65,25.65,0,0,1,0,36.27,25.36,25.36,0,0,1-18.13,7.4,17.62,17.62,0,0,1-12.13-4.82l-.53-.43v28.73l-13,4.1V60.66h13v3.86l.53-.54c3.87-3.75,8.27-4.29,12.13-4.29a25.72,25.72,0,0,1,18.13,7.4m-5.47,18.14a12.66,12.66,0,1,0-25.32,0c0,7,5.79,13,12.66,13s12.66-6,12.66-13"/><path class="cls-1" d="M316.48,103.36a25.65,25.65,0,0,1,0-36.27,25.38,25.38,0,0,1,18.13-7.4,17.58,17.58,0,0,1,12.13,4.83l.53.43V60.66h13V109.8h-13v-3.86l-.53.53c-3.86,3.76-8.27,4.29-12.13,4.29a25.74,25.74,0,0,1-18.13-7.4M322,85.23a12.66,12.66,0,1,0,25.32,0c0-7-5.79-13-12.66-13s-12.66,6-12.66,13"/><path class="cls-1" d="M316.48,103.36a25.65,25.65,0,0,1,0-36.27,25.38,25.38,0,0,1,18.13-7.4,17.58,17.58,0,0,1,12.13,4.83l.53.43V60.66h13V109.8h-13v-3.86l-.53.53c-3.86,3.76-8.27,4.29-12.13,4.29a25.74,25.74,0,0,1-18.13-7.4M322,85.23a12.66,12.66,0,1,0,25.32,0c0-7-5.79-13-12.66-13s-12.66,6-12.66,13"/><polygon class="cls-1" points="373.24 138.34 384.94 109.91 365.3 60.66 379.68 60.66 391.91 91.23 404.36 60.66 418.63 60.66 387.3 138.34 373.24 138.34"/><polygon class="cls-1" points="373.24 138.34 384.94 109.91 365.3 60.66 379.68 60.66 391.91 91.23 404.36 60.66 418.63 60.66 387.3 138.34 373.24 138.34"/><path class="cls-1" d="M63.2,110.24a25,25,0,1,1,0-50c6.79,0,12.51,3.6,16.11,6.61l1,.87v-6.4h8v47.88h-8v-6.41l-1,.87c-3.6,3-9.32,6.61-16.11,6.61M63.2,68A17.27,17.27,0,1,0,80.35,85.23,17.24,17.24,0,0,0,63.2,68"/><path class="cls-1" d="M102.73,109.17V68.82H95.44V61.29h7.29V47.14a15.41,15.41,0,0,1,15.68-15.47h10l-2,7.54h-7.78a8.24,8.24,0,0,0-7.92,8.14V61.29h15.12v7.53H110.7v40.35Z"/><path class="cls-1" d="M155.85,109.17a15.7,15.7,0,0,1-15.67-15.68V68.82h-7.3V61.29h7.3V31.67h8V61.29h15.13v7.53H148.14V93.27c0,4.38,3.78,8.36,7.93,8.36h7.77l2,7.54Z"/><path class="cls-1" d="M190.13,110a21.35,21.35,0,0,1-16.15-7.3,24.64,24.64,0,0,1-6.49-15.07,14.88,14.88,0,0,1-.11-2.21,26.68,26.68,0,0,1,.63-5.66,25.37,25.37,0,0,1,6-11.62,21.88,21.88,0,0,1,32.44,0,24.23,24.23,0,0,1,6,11.59,32.31,32.31,0,0,1,.57,7.09H175v.85c1.11,8.47,7.5,14.89,14.89,15a19.44,19.44,0,0,0,12.12-5l6.64,4a28.06,28.06,0,0,1-5.88,4.79A27.17,27.17,0,0,1,190.13,110m0-41.74c-6.15,0-11.87,4.44-14.22,11l-.08.14-.45.92H204.9l-.57-1.13c-2.2-6.53-7.92-11-14.19-11"/><path class="cls-1" d="M220.77,109.17V61.29h8v6.05l1.11-1.22c2.82-3.11,11.12-5.65,16.64-5.89l-1.95,8c-8.75.25-15.8,7.07-15.8,15.43v25.55Z"/><path class="cls-2" d="M487.38,74.23l13.94-8.07c-1.54-2.71-1.16-2.06-2.56-4.61s-.93-3.76,2.14-3.79q13.43-.09,26.84,0c2.66,0,3.3,1.15,2,3.49q-6.65,11.68-13.42,23.27c-1.44,2.47-2.7,2.46-4.21,0s-1.13-1.87-2.79-4.68l-13.9,8.07a11.41,11.41,0,0,0,.91,1.67c3.45,6,5,8.86,8.54,14.78,4.22,7,13.05,7.44,18.07,1a20.49,20.49,0,0,0,1.53-2.27q12.66-21.94,25.28-43.9a17.42,17.42,0,0,0,2-4.76,10.53,10.53,0,0,0-10.3-12.87c-18.1-.09-36.19-.11-54.28.05a10.64,10.64,0,0,0-9.58,15.58c1.18,2.36,2.6,4.6,3.93,6.89,2.49,4.3,3.15,5.44,5.9,10.17"/><path class="cls-3" d="M447.15,119.41c0-5.43,0-16,0-16s-2.23,0-5.23,0-3.7-1.08-2.19-3.73q6.62-11.55,13.36-23c1.33-2.28,2.52-2.48,4,.05,4.45,7.69,8.9,15.38,13.28,23.1,1.4,2.47.77,3.54-2.05,3.63h-5.41v16.1h18.82c8.12-.12,12.89-7.49,9.82-15a20.49,20.49,0,0,0-1.19-2.45q-12.51-21.79-25.07-43.56a17.16,17.16,0,0,0-3.09-4.07A10.44,10.44,0,0,0,446,56.77Q432.38,80,419,103.36a10.55,10.55,0,0,0,8.59,16c2.62.16,13.77.07,19.53.07"/></svg>