<svg clip-rule="evenodd" fill-rule="evenodd" stroke-linecap="round" stroke-linejoin="round" stroke-miterlimit="10" viewBox="0 0 179 12" xmlns="http://www.w3.org/2000/svg"><path d="m178.719 2.568v6.2c0 .61-.25 1.15-.63 1.54-.41.39-.93.64-1.53.64h-174.391c-.6 0-1.13-.25-1.53-.64-.38-.39-.63-.93-.63-1.54v-6.2c0-.6.25-1.15.63-1.54.4-.4.93-.63 1.53-.63h174.391c.6 0 1.12.23 1.53.63.38.39.63.94.63 1.54z" fill="#4b1d17"/><path d="m28.068 2.048c.36-.32.71-.72 1.22-.81h.05c.58.01 1.07.53 1.14 1.09l.15 1.45-.75-1.24c-.03 0-.07.03-.12.05-.58.42-1.03.99-1.51 1.53-.13.16-.27.33-.41.49h.05c.59.02 1.21.03 1.79.2.07-.05.16-.07.25-.07.05 0 .08.01.12.02.43.12.8.53.83.99 0 .17-.15.34-.32.34-.04 0-.07 0-.1-.02-.27.25-.47.56-.7.85-.19.28-.39.58-.55.87.36-.3.71-.66 1.05-.98.2-.2.39-.42.57-.64.42-.46.82-.94 1.3-1.33.09-.08.22-.12.34-.12.05 0 .09 0 .13.01.43.13.78.53.81.98.01.18-.15.34-.32.34-.03 0-.06-.01-.1-.02-.03.04-.08.08-.12.12-.26.31-.49.66-.74.98-.17.28-.35.54-.51.83.53-.42 1.02-.91 1.5-1.39.27-.49.56-.98.85-1.46.01-.03.03-.06.04-.08h-.12c-.03 0-.06 0-.09-.01-.4-.07-.72-.42-.76-.84 0-.08 0-.15.03-.21.12-.41.57-.6.93-.73.45-.14.91-.22 1.36-.28.41-.55.8-1.13 1.29-1.6.14-.11.27-.2.43-.26.04-.01.1-.02.15-.02.43 0 .85.22 1.08.58.04.06.06.13.06.21 0 .16-.15.33-.32.31-.04 0-.09 0-.14-.02-.02.01-.05.04-.06.06-.21.17-.38.38-.56.61.2-.02.39-.02.59-.02 1.35.02 2.71.08 4.03.37.03.01.06.02.08.02.14.04.22.17.23.32 0 .17-.15.32-.33.31-.03 0-.05 0-.08 0-.84-.08-1.68-.12-2.51-.12-.94 0-1.87.06-2.81.19-.3.43-.59.88-.88 1.33-.04.07-.08.15-.12.21-.5.81-1.01 1.62-1.44 2.48.46-.39.88-.81 1.29-1.22.11-.18.22-.34.34-.5.31-.47.65-.94 1.06-1.31.09-.09.22-.15.35-.15.05 0 .09.01.13.02.44.13.8.54.83.99.01.17-.16.34-.33.34-.03 0-.06 0-.09-.02-.27.25-.47.56-.68.85-.21.28-.4.58-.57.87.37-.3.71-.66 1.05-.98.2-.2.39-.42.59-.64.4-.46.81-.94 1.28-1.33.09-.08.22-.12.34-.12.04 0 .09 0 .13.01.42.13.78.53.81.98.01.18-.15.34-.32.34-.03 0-.06-.01-.1-.02-.04.04-.08.08-.12.12-.27.31-.5.66-.73.98-.18.28-.36.55-.51.83.59-.46 1.11-1.02 1.66-1.55.03-.06.07-.12.11-.17.32-.5.66-.99 1.1-1.39.03-.02.06-.04.08-.05.08-.04.16-.07.25-.07.05 0 .1.01.14.02.32.1.61.36.74.7.07-.06.14-.11.21-.18.32-.23.66-.5 1.08-.55.1 0 .17.01.24.06.22.14.39.33.51.57.03.06.05.12.05.19s-.03.15-.089.23c-.051.04-.101.09-.141.13-.26.29-.53.56-.75.87.2-.14.41-.3.601-.48.129-.14.29-.29.439-.44.68-.56 1.48-1.08 2.38-1.13h.1c.36.09.74.35.82.74 0 .04.01.08.01.12 0 .01-.01.03-.01.04.2-.2.44-.37.67-.51.51-.31 1.09-.55 1.681-.56.12 0 .249.05.35.12.26.22.349.58.349.91v.11c0 .05-.02.11-.05.16-.039.07-.069.14-.129.2.26-.08.559-.15.829-.19.2-.01.39.18.39.38 0 .12-.11.23-.22.3-.14.07-.28.11-.43.17-.75.25-1.5.52-2.18.88.09.17.171.34.171.52v.1c-.121.53-.591.87-1.031 1.11-.43.23-.91.39-1.41.42-.04 0-.1-.01-.14-.03-.09-.01-.16-.05-.24-.11-.17-.13-.26-.33-.31-.55l-.01-.04v-.04c.01-.04.01-.08.021-.11.059-.14.139-.28.219-.38-.16.13-.35.25-.52.38-.57.38-1.2.76-1.9.77-.52-.02-1.01-.46-1.04-.97-.01-.24.04-.47.11-.67-.15.05-.3.08-.46.08-.06 0-.15-.01-.21-.04-.24-.12-.44-.35-.55-.6-.03-.06-.03-.11-.03-.17 0-.09.01-.16.03-.24-.35.31-.69.65-.98 1.01-.33.38-.63.78-.83 1.23l.61.29-.84.22c-.05.02-.1.02-.16.02-.43 0-.73-.43-.82-.82-.01-.04-.01-.08-.01-.11 0-.05 0-.08.01-.12-.21.19-.43.38-.65.54-.25.16-.51.35-.81.35-.12 0-.24-.04-.34-.12-.27-.15-.46-.43-.49-.71-.01-.03-.01-.04-.01-.07.01-.12.03-.23.07-.37-.11.12-.2.22-.31.33-.4.35-.78.77-1.31.91l-.04.01h-.1c-.07 0-.12-.01-.19-.02-.32-.15-.58-.47-.6-.83v-.04c-.34.32-.68.68-1.11.87-.03.01-.07.03-.11.03-.04.01-.08.01-.12.01s-.08 0-.13-.01c-.07-.02-.16-.05-.23-.09-.01-.01-.04-.02-.05-.02-.18-.15-.34-.33-.45-.55-.02-.05-.04-.1-.04-.16-.01-.04-.02-.08-.02-.13.01-.02.01-.05.02-.08-.26.25-.51.48-.81.69-.24.16-.5.35-.8.35-.12 0-.25-.04-.34-.12-.26-.15-.46-.43-.49-.71 0-.03-.01-.04-.01-.07.01-.11.04-.23.07-.37-.11.12-.22.23-.33.34-.39.34-.77.76-1.29.9l-.04.01h-.1c-.06 0-.12-.01-.18-.02-.33-.15-.6-.47-.62-.83.03-.42.22-.81.39-1.19.23-.48.5-.94.8-1.37.17-.23.33-.47.51-.7-.35 0-.71.02-1.05.06-.32.04-.62.09-.93.13-1.1 1.5-2.17 3.04-2.95 4.74-.02.05-.03.1-.05.14l1.68-1.11-1.25 1.58c-.22.24-.47.49-.81.58-.04.01-.08.02-.12.02-.11 0-.22-.05-.32-.11-.19-.14-.3-.38-.3-.62.03-.84.37-1.63.71-2.38.34-.76.74-1.48 1.18-2.19-.47.18-.93.41-1.3.74-.03.04-.06.07-.08.11v.03c.01.19-.14.35-.33.35-.09 0-.18-.04-.27-.1-.18-.17-.33-.41-.39-.65v-.07c-.01-.39.22-.72.52-.94.22-.16.45-.28.71-.4.68-.28 1.41-.46 2.12-.58.69-1 1.44-1.93 2.29-2.78zm6.29 2.42c-.04.03-.08.05-.12.09l.06.03c.02-.04.05-.07.06-.12zm1.47-2.84c-1.7-.38-3.45-.54-5.2-.57-2.83.04-5.8.57-8.08 2.29-.12.13-.25.24-.36.36-.16.19-.33.39-.34.63 0 .1.04.18.1.26.21.23.52.35.8.45.04.02.08.03.12.06l.38.19-.31.31c-.08.06-.17.09-.27.09-.35 0-.7-.05-1.02-.17-.6-.18-1.12-.72-1.1-1.36.01-.89.6-1.63 1.28-2.12.57-.42 1.22-.73 1.87-.99 2.12-.79 4.39-1.05 6.64-1.06 1.13 0 2.27.12 3.39.32.82.16 1.67.31 2.42.68.01 0 .04.01.05.02.1.06.2.18.2.31 0 .19-.18.35-.38.34-.07 0-.13-.02-.19-.04zm9.3 6.47c-.1.13-.18.28-.21.44.11-.02.24-.08.36-.14.96-.48 1.77-1.14 2.59-1.85v-.08c-.23.27-.49.49-.77.7-.59.43-1.239.84-1.97.93zm2.521-.29c.199-.15.419-.28.619-.4-.03-.04-.05-.07-.08-.1-.18.17-.36.33-.539.5zm2.259-1.61c-.32.19-.62.45-.87.74l-.01.02c.01.01.01.02.01.02.28-.14.54-.27.8-.41-.02-.05-.03-.1-.03-.15 0-.09.03-.17.1-.22z" fill="#231f20"/><g fill="#fff"><path d="m28.278 2.278c.46-.45.84-.73 1.06-.73.36 0 .77.37.81.82-.06-.12-.17-.15-.27-.15-.31 0-1.02.67-1.86 1.69-.28.32-.53.66-.84 1.04.27 0 .49-.01.71-.01 1.56 0 2.12.3 2.08.31-.05.01-.33-.07-.95-.07-.28 0-.66.01-1.09.07-.37.04-.73.1-1.08.16-1.65 2.22-3.23 4.8-3.23 5.52 0 .08.03.13.08.13.21 0 .35-.13.52-.23-.18.22-.5.49-.69.49-.15 0-.31-.2-.31-.41 0-1.08 1.05-3.22 2.32-5.18-1.4.45-2.47 1.07-2.43 1.49.01.18-.36-.26-.39-.48-.06-.84 1.81-1.38 3.25-1.63.7-1 1.41-1.91 2.31-2.83zm7.67-.95c-.25-.09-2.88-.59-5.32-.59-5.47 0-9.1 2.39-9.1 3.6 0 .69 1.11 1 1.19 1.05 0 0-.01 0-.05 0-.67 0-1.82-.28-1.81-1.22.04-2.34 4.68-3.85 9.48-3.85 2.13 0 4.88.52 5.67.95.15.08.01.1-.06.06zm-5.73 6.95c.17-.5.56-1.26.94-1.76-1.02 1.11-2.38 2.66-2.97 2.78-.02 0-.08 0-.08 0-.16 0-.47-.29-.47-.54 0-.46.55-1.54 1.12-2.39.35-.52.76-1.03 1.02-1.26.06-.04.12-.06.15-.06.24 0 .63.42.63.7 0 .04-.04-.02-.13-.02-.16-.02-.57.54-.91 1.01-.52.71-1.02 1.64-1.02 1.96.48-.22 1.51-1.18 1.99-1.68.51-.55 1.27-1.47 1.84-1.95.05-.04.1-.05.14-.05.25 0 .62.43.62.69 0 .04-.02-.02-.11-.03-.08 0-.21.09-.34.25-.15.18-.43.55-.76 1.03-.5.71-.88 1.47-.88 1.77.63-.2 2.07-1.66 2.68-2.27.05-.06.11.02.08.05-.89 1.02-2.51 2.81-3.12 2.81-.05 0-.11-.02-.16-.06-.17-.08-.36-.33-.36-.53 0-.11.06-.3.1-.45zm5.33-5.04c.79-1.09 1.06-1.41 1.32-1.63.14-.13.27-.22.36-.22.57-.04.97.59.79.47-.33-.16-.93.7-1.37 1.3 1.62-.08 3.74 0 5.19.32.07.03.11.05 0 .04-1.99-.19-3.83-.17-5.52.1-.37.49-.7 1.02-1.11 1.65-.86 1.42-1.62 2.77-1.87 3.45.44.06 2.11-1.69 2.69-2.26.07-.06.12.02.08.05-.49.61-2.24 2.55-2.85 2.79-.12.06-.23.02-.31-.04-.09-.04-.31-.27-.37-.43-.01-.02-.02-.05-.02-.16 0-.33.45-1.37 1.68-3.4.27-.43.56-.91.93-1.44-.95.2-1.54.72-1.28.89-.16 0-.51-.21-.54-.55-.03-.48 1.07-.78 2.2-.93zm1.85 5.04c.17-.5.56-1.26.93-1.76-1.02 1.11-2.38 2.66-2.97 2.78-.03 0-.08 0-.08 0-.17 0-.48-.29-.48-.54 0-.46.56-1.54 1.13-2.39.35-.52.77-1.03 1.03-1.26.05-.04.11-.06.13-.06.26 0 .64.42.64.7 0 .04-.04-.02-.13-.02-.15-.02-.57.54-.92 1.01-.5.71-1 1.64-1 1.96.48-.22 1.49-1.18 1.98-1.68.53-.55 1.27-1.47 1.84-1.95.04-.04.1-.05.14-.05.25 0 .62.43.62.69 0 .04-.03-.02-.11-.03-.07 0-.2.09-.35.25-.14.18-.42.55-.76 1.03-.5.71-.86 1.47-.86 1.77.63-.2 2.05-1.66 2.66-2.27.06-.06.11.02.08.05-.86 1.02-2.5 2.81-3.11 2.81-.05 0-.11-.02-.15-.06-.17-.08-.37-.33-.37-.53 0-.11.07-.3.11-.45zm3.42-1.88c.37-.55.79-1.09 1.05-1.29.05-.06.09-.07.13-.07.24 0 .63.42.63.69 0 .04-.03-.01-.11-.02-.14-.02-.5.41-.8.83-.28.39-.62.89-.85 1.28.54-.73 1.55-1.62 2.41-2.28.39-.32.7-.5.9-.52.12 0 .53.45.46.53-.23.26-1.059 1.05-1.39 1.88.49-.06 1.18-.53 1.8-1.12.02-.02.061-.03.08 0-.18.25-1.38 1.45-2.08 1.45-.18 0-.47-.37-.47-.5 0-.3.3-.92.58-1.23-.94.57-1.4.99-2.1 1.79-.5.59-1.1 1.54-.89 1.64-.28.07-.53-.26-.6-.55-.03-.1.03-.3.15-.55.25-.61.7-1.35 1.1-1.96zm4.14 1.39c-.18.24-.369.57-.4.87-.01.12.08.19.31.19.731 0 2.581-1.48 3.58-2.38.03-.03.1.02.07.05-.76.76-2.75 2.8-4.08 2.8-.32 0-.73-.38-.73-.66s.07-.48.15-.71c.23-.62.75-1.28 1.38-1.86.83-.73 1.74-1.07 2.17-1.07.15 0 .62.25.62.56 0 .66-1.95 2.19-3.07 2.21zm2.74-2.44c-1.12.38-2.28 1.67-2.6 2.24.86-.1 2.54-1.84 2.6-2.24zm3.15.11c-.46-.05-2.02.97-2.15 1.47-.03.18.2.35.3.44 1.61-.96 2.9-1.19 3.03-1.19.02 0 .06.02.06.06.09.03-1.899.59-3 1.28.13.1.381.41.36.63-.14.7-1.46 1.27-2.13 1.27-.22 0-.33-.19-.38-.43.04-.46 1.51-1.36 1.87-1.5-.119-.16-.7-.55-.62-1.02.15-.81 1.6-1.59 2.491-1.59.279 0 .409.48.38.78 0 .15-.64.8-.901.8-.02 0-.04-.05-.03-.05.04 0 .7-.75.72-.95zm-2 2.2c-.61.37-1.36.9-1.65 1.21.4-.11 1.65-.8 1.65-1.21zm-43.38-.34v2.81c0 .06-.06.11-.1.11-.08 0-.12-.05-.12-.11v-2.81c0-.06.04-.1.12-.1.04 0 .1.04.1.1zm11.66 0v2.81c0 .06-.04.11-.11.11-.04 0-.1-.05-.1-.11v-2.81c0-.06.06-.1.1-.1.07 0 .11.04.11.1zm-11.76-2.72c-.22-.76-.47-1.52-.9-2.2-.04-.05-.06-.09-.1-.13-.02-.02-.02-.04-.02-.07 0-.04 0-.06.02-.07.16-.18.41-.27.61-.34.13-.04.27-.08.4-.11.12-.03.25-.06.37-.08 1.7-.31 3.41-.35 5.11-.36 1.81.01 3.65.06 5.45.38.13.03.27.05.4.08.15.03.27.07.39.11.22.07.45.16.58.35.02.02.03.02.03.05 0 .02 0 .04-.01.06-.02.04-.04.1-.06.15-.28.69-.55 1.41-.63 2.17-.01.06-.06.1-.12.1-.06-.01-.1-.05-.1-.13.08-.77.34-1.51.65-2.23.01-.03.02-.05.04-.09-.12-.12-.29-.17-.45-.22-.12-.04-.24-.07-.36-.11-.14-.03-.27-.05-.4-.08-1.79-.31-3.61-.37-5.41-.38-1.69.01-3.39.05-5.07.36-.11.02-.24.05-.37.07-.12.04-.25.07-.37.11-.14.05-.31.12-.45.24.02.01.04.04.04.05.45.7.73 1.49.94 2.27.01.06-.02.13-.08.13-.05.03-.12-.02-.13-.08z"/><path d="m6.928 2.698c.02 0 .04 0 .06.01.06-.1.25-.21.32-.29.02-.05.05-.04.02 0-.05.1-.24.23-.3.32.01.03.03.07.03.11 0 .03-.01.06-.02.08.08.11.2.22.27.32.02.05 0 .03-.03-.01-.09-.1-.21-.17-.28-.26-.01 0-.04.02-.07.02-.02 0-.05 0-.09-.03 0 .01-.01 0-.01 0-.07.04-.22.15-.3.22-.06.04-.07.04-.04 0 .08-.09.23-.19.31-.26l-.01-.02c0-.02-.02-.03-.02-.06 0 0 .02-.04.02-.05-.09-.07-.24-.22-.3-.3-.05-.04-.03-.04 0 0 .08.06.25.19.34.25.02-.02.06-.04.09-.05zm0 .07c-.01 0-.04.02-.05.04-.02 0-.02.04-.02.04 0 .03 0 .05.03.06 0 0 .03.02.04.02.04 0 .07-.04.07-.08s-.03-.08-.07-.08zm-1.88 3.08c.02 0 .06.01.08.03.06-.1.25-.21.32-.3.02-.05.04-.04.02 0-.06.1-.24.23-.3.32.01.02.03.09.03.11 0 .03-.01.08-.03.09.08.1.21.21.28.3.02.06 0 .05-.04-.01-.08-.08-.2-.16-.28-.26-.02.02-.04.03-.06.03-.04 0-.07-.01-.09-.03h-.01c-.07.05-.23.15-.31.21-.06.04-.08.05-.04 0 .07-.08.23-.19.32-.25l-.01-.02c-.02-.01-.02-.03-.02-.05 0-.01.02-.05.02-.08-.1-.04-.25-.2-.32-.28-.05-.04-.02-.04.01-.01.08.07.25.2.33.25.03-.01.07-.02.1-.04zm.02.07c-.02.02-.05.02-.06.05-.03.01-.03.04-.03.05 0 .02 0 .04.03.05.01.02.04.02.06.02.04 0 .06-.04.06-.08 0-.03-.02-.09-.06-.09zm12.33-.04c.01 0 .05 0 .06.01.06-.09.25-.21.31-.3.02-.04.05-.04.02.01-.06.1-.22.23-.28.32.01.02.02.09.02.12 0 .02-.01.05-.02.07.07.1.19.21.26.31.03.05 0 .04-.04-.01-.06-.09-.19-.17-.26-.26-.02.01-.04.02-.07.02s-.06-.01-.09-.02l-.01-.01c-.09.06-.24.16-.3.22-.06.03-.07.04-.05 0 .07-.09.22-.2.32-.25l-.01-.02c-.02-.02-.02-.03-.02-.05s.02-.05.02-.06c-.1-.06-.25-.23-.32-.3-.04-.04-.01-.05.02-.01.07.07.23.21.33.25.02-.02.07-.03.09-.04zm0 .06c-.02.03-.04.03-.06.04-.01.02-.01.04-.01.06s0 .03.01.05c.02.01.04.01.07.01.04.01.05-.03.05-.06 0-.04-.01-.1-.06-.1zm-7.85-3.24h.01c.03.01.06.03.09.05.11-.06.27-.19.32-.25.05-.04.07-.04.03 0-.07.08-.21.23-.31.3v.05.06l-.01.02c.09.07.24.17.31.26.03.04.01.04-.03 0-.08-.07-.25-.18-.31-.22 0 0-.01.01-.01 0-.03.03-.07.03-.1.03-.02 0-.05-.02-.07-.02-.06.09-.19.16-.26.26-.03.04-.06.06-.03.01.07-.1.17-.21.26-.32-.02-.02-.03-.05-.03-.08 0-.04.02-.08.04-.11-.07-.09-.23-.22-.3-.32-.02-.04 0-.05.03 0 .05.08.24.19.31.29.01-.01.04-.01.06-.01zm-.01.07c-.04 0-.06.04-.06.08s.02.08.05.08.04-.02.07-.02c.02-.01.02-.03.02-.06 0 0 0-.04-.02-.04-.02-.02-.04-.04-.06-.04zm2.74-.07c.03 0 .06 0 .07.01.07-.1.25-.21.31-.29.03-.05.04-.04.03 0-.08.1-.23.23-.3.32.02.03.03.07.03.11 0 .03 0 .06-.02.08.08.11.19.22.26.32.03.05 0 .03-.04-.01-.06-.1-.19-.17-.26-.26-.01 0-.05.02-.07.02s-.07 0-.1-.03c0 .01-.01 0-.01 0-.08.04-.23.15-.3.22-.05.04-.06.04-.03 0 .06-.09.22-.19.3-.26l-.01-.02c-.01-.02-.01-.03-.01-.06 0 0 .01-.04.01-.05-.1-.07-.23-.22-.31-.3-.03-.04-.01-.04.03 0 .07.06.22.19.32.25.02-.02.05-.04.09-.05zm.01.07c-.02 0-.04.02-.07.04-.01 0-.01.04-.01.04 0 .03 0 .05.01.06.03 0 .05.02.08.02.04 0 .06-.04.06-.08s-.02-.08-.07-.08zm2.66.19c-.04-.01-.07-.03-.1-.05-.09.06-.25.19-.32.25-.05.05-.07.04-.02 0 .07-.08.21-.23.31-.29 0-.02-.01-.06-.01-.06 0-.02 0-.04.01-.06l.01-.02c-.1-.05-.24-.16-.31-.25-.04-.04-.03-.04.04.01s.23.15.31.21l.01-.01c.02-.02.05-.02.08-.02s.05.01.08.02c.07-.1.18-.17.26-.27.03-.04.06-.05.03 0-.07.08-.19.21-.26.31.02.01.03.06.03.08 0 .04-.02.08-.03.1.06.1.22.23.28.33.03.04 0 .06-.02 0-.07-.09-.24-.2-.3-.29-.03.01-.06.01-.08.01zm.01-.07c.04 0 .07-.04.07-.08s-.03-.08-.06-.07c-.02 0-.04 0-.06.01-.03.02-.03.04-.03.06 0 0 0 .04.03.04.01.03.04.04.05.04zm-1.39 1.6h.02c.03.01.06.03.1.05.07-.06.24-.19.31-.25.03-.05.05-.04.01 0-.07.08-.21.23-.3.29v.11l-.01.03c.09.06.23.17.3.25.04.05.02.04-.04 0-.06-.06-.21-.16-.29-.21 0 0 0 .01-.02.01-.02.01-.05.01-.09.01-.01 0-.05-.01-.06-.01-.08.09-.2.16-.28.26-.02.04-.06.05-.03.01.08-.09.19-.21.25-.32 0-.01-.01-.06-.01-.08 0-.04.01-.08.04-.11-.07-.09-.24-.22-.3-.31-.03-.04-.01-.07.03 0 .06.08.24.19.31.28.01-.01.04-.01.06-.01zm-.01.07c-.03 0-.05.04-.05.08 0 .02.01.08.05.07.02 0 .04 0 .06-.02.02-.01.02-.03.02-.05 0-.01 0-.04-.01-.05-.01-.02-.04-.03-.07-.03zm-2.6-.08c.01 0 .05.01.06.02.07-.09.25-.21.31-.3.03-.05.05-.02.03.02-.07.09-.22.22-.29.31.02.03.03.07.03.11 0 .02-.01.05-.03.08.08.1.19.21.26.31.04.04 0 .03-.03-.01-.08-.09-.19-.18-.27-.26-.01.01-.06.02-.07.02-.03 0-.07-.01-.09-.02 0 0-.01-.01-.02-.01-.07.06-.22.15-.29.22-.06.04-.07.05-.05 0 .09-.09.23-.2.31-.25v-.04c-.02 0-.02-.03-.02-.04s.02-.05.02-.07c-.09-.05-.23-.2-.31-.28-.04-.04-.02-.05.02-.01.07.07.23.2.31.25.03-.01.06-.04.1-.05zm0 .08c-.03 0-.04 0-.07.02-.01.02-.01.03-.01.06 0 .02 0 .04.02.04.02.03.04.03.06.03.05 0 .06-.05.06-.07 0-.04-.01-.08-.06-.08zm-3.73 4.08v-.71c0-.36 0-.7-.04-1.05 0-.03.01-.05.04-.08.01-.02.05-.03.07-.04 1.32-.07 2.66-.11 3.97-.11 1.28 0 2.55.03 3.83.11.03.01.05.02.07.04.02.03.02.05.02.08-.01.18-.02.36-.02.53 0 .16.01.34.01.52.01.21.01.39.01.61v.1c0 .04-.01.06-.04.08-.01.01-.04.02-.06.02h-7.77c-.03 0-.05-.01-.08-.02-.01-.02-.04-.05-.01-.08zm.2-.1h7.55c0-.2-.01-.4-.01-.61 0-.18-.01-.34-.01-.52 0-.15 0-.3.02-.44-1.23-.08-2.47-.11-3.71-.11-1.28 0-2.56.03-3.86.11.02.32.03.63.03.96 0 .2-.01.39-.01.61z"/><path d="m6.278 4.458h.25c.76 0 1.42-.37 2-.82.04-.02.07-.02.1-.01.04 0 .06.04.06.08.14.83.39 1.68.91 2.36.05.06.11.13.17.19.04.02.04.06.03.11-.03.03-.06.06-.11.06-.69.03-1.38.2-1.99.51-.06.04-.13.08-.19.12-.05.04-.1.07-.15.13-.03.04-.08.05-.12.03-.04 0-.07-.05-.08-.1-.08-.71-.24-1.42-.59-2.06-.04-.05-.08-.11-.11-.15-.04-.05-.08-.1-.11-.14-.05-.05-.09-.09-.13-.12-.06-.02-.07-.09-.04-.13.01-.04.05-.07.1-.06z"/></g><path d="m6.568 4.678c.72 0 1.37-.34 1.94-.76.14.81.42 1.62.93 2.28.01.02.01.02.02.03-.65.05-1.29.22-1.87.52-.08.04-.14.08-.2.13 0 .01-.02.02-.03.02-.09-.67-.28-1.35-.6-1.95-.03-.06-.08-.11-.11-.17-.03-.03-.05-.06-.08-.1z" fill="#4b1d17"/><path d="m6.758 9.028v-1.94c-.02-.54-.14-1.08-.48-1.51-.25-.33-.65-.56-1.07-.55-.1 0-.21.02-.31.03-.25.05-.48.18-.64.38-.13.18-.2.37-.2.6 0 .28.13.56.34.75.14.12.34.19.54.19.29 0 .57-.13.8-.29.05-.03.12-.02.15.03.03.04.02.11-.02.14-.28.2-.6.33-.93.33-.26 0-.5-.08-.68-.25-.28-.21-.41-.57-.41-.9 0-.27.08-.53.25-.74.18-.24.46-.38.76-.44.12-.02.23-.04.35-.04.49 0 .95.24 1.24.63.36.45.51 1.05.52 1.63v1.84h8.43v-1.84c.02-.58.18-1.18.52-1.63.3-.39.77-.63 1.24-.63.13 0 .25.02.36.04.3.06.59.2.78.44.15.21.24.47.24.74 0 .33-.16.69-.41.9-.19.17-.45.25-.68.25-.35 0-.67-.13-.94-.33-.05-.03-.07-.1-.04-.14.04-.05.11-.06.15-.03.25.16.52.29.83.29.19 0 .37-.07.53-.19.22-.19.33-.47.33-.75 0-.23-.06-.42-.19-.6-.16-.2-.41-.33-.64-.38-.1-.01-.21-.03-.32-.03-.41-.01-.81.22-1.07.55-.33.43-.45.97-.47 1.51v1.94c0 .05-.04.11-.1.11h-8.66c-.05 0-.1-.06-.1-.11z" fill="#fff"/><path d="m8.068 4.338c.14.03.28.05.42.05.63 0 1.22-.3 1.73-.64.05-.03.13-.02.17.03 0 .02.01.04.01.06.06.8.24 1.6.67 2.27.04.07.09.13.14.2.04.04.03.1-.01.15-.03.01-.06.02-.09.02-.05-.01-.14-.01-.21-.01-.59.01-1.19.1-1.73.36-.05.02-.12.05-.16.07-.05.04-.1.07-.14.11-.02.01-.04.02-.07.02-.05 0-.11-.04-.11-.1-.02-.67-.12-1.35-.4-1.98-.04-.05-.06-.11-.09-.16s-.07-.1-.1-.15c-.03-.04-.06-.08-.1-.1s-.06-.06-.05-.1c.01-.07.07-.11.12-.1z" fill="#fff"/><path d="m8.328 4.588c.04.01.1.01.16.01h.01c.01 0 .01.01.03.01.02.04.04.07.07.11.02.05.05.09.07.14.21.56.28 1.18.37 1.79-.05.02-.09.06-.15.07-.04-.63-.15-1.28-.4-1.86-.05-.06-.07-.12-.11-.18-.01-.03-.03-.05-.05-.09zm.31 0c.05 0 .08-.01.13-.01.03.03.04.07.06.1.02.06.04.1.05.16.2.55.31 1.13.4 1.7-.05.01-.09.03-.13.06-.1-.6-.16-1.21-.39-1.79-.02-.04-.05-.09-.07-.15-.02-.02-.04-.05-.05-.07zm.24-.03c.05 0 .09-.01.13-.02.02.03.03.06.04.1.25.58.38 1.19.48 1.81-.04.01-.1.03-.15.05-.08-.58-.19-1.15-.39-1.71-.02-.05-.04-.11-.06-.15-.02-.03-.02-.05-.05-.08zm.24-.04c.05-.01.08-.03.13-.04.23.62.39 1.26.56 1.9-.05.01-.12.02-.17.04-.11-.62-.25-1.25-.48-1.84-.01-.02-.02-.04-.04-.06zm.23-.07c.06-.03.12-.04.18-.08v.05c.13.65.32 1.28.56 1.9-.05 0-.12.03-.17.04-.16-.64-.34-1.3-.57-1.91zm.29-.12c.03-.01.07-.03.12-.04v.07c.1.66.33 1.3.59 1.92-.04.02-.1.02-.15.03-.24-.62-.43-1.25-.55-1.9-.01-.02-.01-.05-.01-.08zm.21-.09c.07-.04.12-.06.17-.1-.02.05-.02.11-.02.16 0 .06 0 .11.02.16.07.64.3 1.24.6 1.81-.04 0-.09 0-.15.01-.27-.63-.5-1.26-.61-1.94 0-.03-.01-.08-.01-.1zm.3-.19c.01 0 .03-.01.05-.03.07.79.27 1.56.68 2.21.01.01.01.01.02.03-.06 0-.11 0-.16 0 0 0 0-.02-.01-.02-.29-.56-.53-1.15-.6-1.78-.01-.05-.01-.1-.01-.16 0-.08 0-.15.03-.24z" fill="#4b1d17"/><path d="m9.888 4.748c.27.05.56.08.85.08.73 0 1.47-.17 2.19-.37.04 0 .08 0 .11.03.02.03.04.06.02.1-.04.19-.05.38-.05.56-.01.48.13.98.47 1.31.04.04.04.09.03.14-.03.03-.07.07-.12.06-.3-.04-.61-.04-.91-.04-.68 0-1.39.03-2.06.21-.07.01-.13.03-.18.05-.04.01-.08 0-.11-.02-.02-.03-.04-.07-.02-.11.07-.27.1-.51.1-.77 0-.33-.05-.66-.25-.92-.04-.04-.09-.08-.14-.11-.06-.03-.06-.08-.05-.13.02-.05.06-.08.12-.07z" fill="#fff"/><path d="m10.178 5.008c.17.01.37.02.56.02.7 0 1.39-.13 2.08-.31-.03.15-.04.29-.04.43 0 .45.11.91.38 1.25-.23-.01-.46-.01-.68-.01-.7 0-1.42.03-2.13.23.05-.23.08-.42.08-.64 0-.33-.05-.7-.25-.97z" fill="#4b1d17"/><path d="m59.229 5.148c.009-.01.049-.04.06-.05.059-.08.08-.17.099-.25.02-.17.181-.3.37-.3l.18.01c.08-.01.151.03.211.08l.539.45c.08.07.14.17.14.31-.02.27-.02.52-.02.78 0 .24.02.49.04.73 0 .18-.14.37-.3.39l-.169.03-.061.01c-.1 0-.18-.04-.24-.08l-.54-.46c-.06-.05-.1-.12-.13-.19-.039 0-.11 0-.179-.01v.96.04c.009.01.019.01.049.01l.52.46c.1.07.14.16.14.27v.2c.011.19-.18.37-.38.36-.02 0-.069 0-.11 0-.339-.02-.69-.02-1.059-.02-.311 0-.651 0-.971.02-.06 0-.12 0-.16 0-.079 0-.16-.04-.229-.08l-.541-.45c-.08-.08-.119-.18-.119-.3v-.19c0-.2.159-.37.359-.35h.18c.02-.7.041-1.4.041-2.11v-.49c0-.3-.021-.6-.021-.92-.009 0-.02 0-.03-.01l-.529-.45c-.09-.06-.131-.16-.131-.27v-.2c0-.19.17-.35.361-.35h.099c.4.01.8.01 1.201.01h.559c.63-.01 1.261-.01 1.891-.01.069 0 .18 0 .26-.02.03-.01.079-.01.12-.01h.009c.09-.01.17.03.23.07l.14.13c.081-.11.201-.17.32-.17h.15c.361.01.711.01 1.081.01.309 0 .649 0 .98-.01h.139c.08 0 .17.02.22.08l.081.07c.06-.11.159-.15.299-.15h.23c.27.01.53.01.79.01h.411c.06-.01.11-.01.17-.01.039 0 .06 0 .099.01.111.01.21.06.29.14l.541.43c.02.01.039.04.06.07.11.11.189.22.28.33.5.56.99 1.14 1.47 1.71.09.08.15.17.249.27-.02-.31-.02-.66-.03-.98-.02-.23-.02-.44-.03-.66-.009-.01-.039-.04-.06-.04l-.52-.45c-.11-.07-.149-.18-.129-.3v-.17c-.02-.2.15-.36.36-.36h.129c.25.01.501.01.77.01.191 0 .38 0 .58-.01h.15c.08 0 .181.02.241.08l.049.05c.08-.09.19-.13.301-.13.069 0 .14 0 .209.01.311.01.61.01.921.01l2.65-.01h.2c.03-.01.06-.01.099-.01.09 0 .17.02.251.1l.54.45c.04.03.079.08.1.15.05.15.08.3.119.44.06.23.111.47.18.69.02.04.031.09.031.16.01.13-.07.24-.2.3l-.13.07c-.051.02-.1.05-.15.05-.11 0-.191-.05-.26-.11l-.53-.44c-.02-.03-.05-.05-.07-.07-.081-.1-.18-.19-.29-.28-.12-.06-.251-.13-.401-.14l-.679-.01-.011.85c.011-.01.021-.02.021-.02.05-.07.089-.16.11-.25-.021-.2.159-.38.389-.37l.23.02c.021.01.021.01.03.01.06.01.11.04.161.08l.529.46c.09.05.161.16.161.27l-.02.04c-.021.24-.021.47-.021.7 0 .25.021.52.051.79v.02.04c.029-.02.059-.06.089-.1.06-.08.171-.14.271-.14.07 0 .13.02.189.07l.111.07c.03 0 .05.02.069.04l.55.44c.071.07.121.18.121.28 0 .04-.011.07-.02.11l-.341 1.08c-.069.2-.259.33-.46.32h-.089c-.191-.01-.401-.01-.601-.01-.23 0-.479-.01-.72-.01h-2.299c-.08 0-.161.01-.23.01-.041 0-.08 0-.14 0-.06.01-.12.01-.18.01-.101 0-.19-.04-.25-.09l-.55-.44c-.021-.03-.051-.07-.071-.11v.15c0 .07-.019.13-.019.2-.03.19-.211.35-.41.35-.181 0-.34-.05-.471-.16l-.539-.46c-.011 0-.02-.01-.03-.03-.351-.31-.651-.67-.98-1.01-.271-.32-.55-.62-.821-.93-.159-.17-.31-.34-.469-.52-.101-.13-.21-.26-.331-.39v.46c0 .43.041.86.05 1.3.021.11.021.24.021.35.02.02.05.04.05.04l.539.46c.09.07.14.18.14.28v.19c.021.19-.179.37-.38.36-.069 0-.119 0-.19 0-.23-.01-.44-.02-.689-.02-.2 0-.411.01-.6.01-.081.01-.161.01-.241.01-.07 0-.15-.04-.23-.08l-.159-.14c-.06.13-.201.23-.341.22-.039 0-.11 0-.14 0-.32-.02-.64-.02-.98-.02-.359 0-.72 0-1.08.02-.039 0-.08 0-.119 0-.09 0-.17-.04-.241-.09l-.539-.44c-.09-.08-.141-.18-.141-.29v-.2c0-.2.18-.35.38-.35h.251c.039-.63.039-1.27.039-1.91v-.54s0 .01-.03.01l-.14.07c-.06.02-.099.04-.15.04-.09 0-.17-.04-.23-.09l-.54-.44c-.01-.03-.04-.04-.049-.08-.021-.02-.03-.04-.051-.04-.009-.01-.009-.03-.029-.04-.111-.13-.21-.24-.311-.36-.03 0-.039 0-.069-.01-.311-.04-.621-.05-.95-.07v.11.97zm4.85-.37v.92.56.92c0 .16.009.31.009.46l.131.12c.049-.13.189-.23.339-.23h.181c.069-.13.079-.27.09-.42.039-.77.06-1.53.06-2.31v-.71c-.071 0-.15-.04-.2-.09l-.081-.06c-.069.08-.189.16-.299.16h-.221c0 .22-.009.45-.009.68zm6.539-.59c-.099.99-.159 2.01-.17 3v.53c.061-.12.2-.19.331-.19h.29v-2.38c0-.39 0-.77-.021-1.15l-.03-.03c-.069.07-.159.13-.279.13h-.11c0 .03 0 .05-.011.09zm2.731 2.2v.1c0 .3.02.59.03.88 0 .06 0 .12.009.19.17-.01.37-.01.55-.03.151-.02.281-.08.411-.17.109-.1.23-.2.32-.3l-.151.03c-.019 0-.06 0-.09 0-.079 0-.17-.03-.219-.07l-.54-.45c-.051-.05-.1-.1-.13-.17-.05 0-.121-.01-.19-.01zm3.9 1.49c-.01-.2.17-.37.36-.35h.19c.02-.7.02-1.4.02-2.11v-.49c0-.3 0-.6-.011-.92-.009 0-.019 0-.03-.01l-.529-.45c-.081-.06-.12-.16-.12-.27v-.2c-.021-.19.15-.35.359-.35h.11c.391.01.78.01 1.171.01h.58c.63-.01 1.259-.01 1.889-.01.09 0 .171 0 .26-.02.041-.01.081-.01.12-.01.101-.01.17.03.241.07l.18.16c.05-.12.19-.2.34-.2h.12c.37.01.75.01 1.12.01.33 0 .65 0 .98-.01h.15c.08 0 .159.02.24.08l.53.45c.09.06.139.17.139.28v.19c.011.21-.179.37-.379.37h-.25c-.02 0-.08 0-.1 0-.021.3-.021.59-.021.89v.47c.011.49.021 1.01.041 1.5.01.16.02.33.08.47.09.02.169.03.26.03.24-.01.49-.09.7-.24.27-.23.37-.59.37-.93v-1.11c-.011-.39-.03-.81-.07-1.21l-.48-.41c-.091-.07-.14-.18-.14-.28v-.19c-.011-.2.17-.38.37-.36h.13c.269.01.54.01.819.01.191 0 .381 0 .591-.01h.12c.09 0 .18.02.26.08v.02c.06-.08.16-.1.26-.1h.09c.33.01.68.01 1.02.01.27 0 .54 0 .81-.01h.599c.541 0 1.081.16 1.491.51l.55.45c.009.01.02.02.05.04.28.25.54.61.54 1.01.03.68-.43 1.27-1.04 1.52.03.02.04.05.06.07.2.24.36.49.51.73.03.03.06.09.09.13.08.11.17.22.25.32.03.02.069.02.11.02h.37c.08-.13.08-.27.1-.42.04-.77.07-1.53.07-2.31v-.63c0-.03 0-.06-.01-.08-.08 0-.16-.04-.22-.09l-.55-.44c-.07-.07-.12-.18-.12-.28v-.2c0-.19.18-.37.36-.35h.25c.27.01.52.01.8.01h.39c.06-.01.11-.01.17-.01.04 0 .08 0 .11.01.1.01.18.06.26.12 0 0 .02 0 .02.02l.54.43c.02.01.04.04.06.06.59.68 1.17 1.37 1.77 2.05.07.08.15.17.23.27-.01-.31-.01-.66-.03-.98 0-.23 0-.44-.02-.66-.03-.01-.05-.04-.06-.04l-.54-.45c-.08-.07-.14-.18-.13-.3v-.17c-.01-.2.18-.36.37-.36h.14c.24.01.5.01.76.01.19 0 .4 0 .6-.01h.14c.08 0 .17.02.24.08l.07.05c.07-.09.17-.13.28-.13h.13c.37.01.72.01 1.09.01.33 0 .65 0 .98-.01h.14c.08 0 .16.02.23.08l.23.2c.02-.08.04-.16.06-.24 0-.02.01-.03.02-.04.05-.18.21-.31.39-.31.1 0 .2.04.28.1l.19.15c.05.02.12.03.19.03.49.03 1 .05 1.5.04h.43c.42.01.85 0 1.26-.03.08 0 .14-.01.2-.01.12-.01.24-.04.35-.1.04-.04.08-.06.13-.1.07-.04.15-.08.26-.08.08 0 .17.04.24.08l.27.23h.18c.37.01.75.01 1.13.01.32 0 .64 0 .97-.01h.15c.1 0 .18.02.23.08l.55.45c.07.05.13.17.13.28v.19c.01.21-.18.37-.39.37h-.25c-.02 0-.05 0-.09.01 0 .29-.01.58-.01.88v.47c.01.49.03 1.01.04 1.5.01.16.01.33.06.47.09.02.18.03.26.03.27-.01.51-.09.71-.24.27-.23.36-.59.36-.93v-1.11c0-.39-.02-.81-.06-1.21l-.49-.41c-.08-.07-.13-.18-.13-.28v-.19c0-.2.17-.38.38-.36h.13c.26.01.54.01.8.01.2 0 .41 0 .6-.01h.11c.09 0 .2.02.27.08l.01.02c.07-.08.15-.1.24-.1h.08c.36.01.7.01 1.05.01.26 0 .53 0 .8-.01h.6c.54 0 1.09.16 1.52.51l.52.45c.01.01.03.02.05.04.28.25.53.61.53 1.01.02.68-.41 1.27-1.01 1.52.02.02.04.05.06.07.15.21.3.44.45.66.05.07.09.13.14.2.07.11.16.23.24.34h.12c.04 0 .1 0 .14.03.04-.03.1-.03.14-.03h.29v-2.38c0-.39 0-.77-.01-1.15l-.54-.44c-.07-.07-.12-.18-.12-.28v-.19c0-.19.17-.36.36-.36.08 0 .16 0 .23.01.31.01.6.01.9.01l2.66-.01h.21c.03-.01.06-.01.08-.01.08 0 .19.02.25.1l.55.45c.04.03.07.08.11.14.04.16.08.3.11.44.06.24.12.47.19.7.02.04.02.09.02.16 0 .13-.06.24-.19.3l-.13.07c-.04.02-.1.05-.17.05-.08 0-.17-.05-.23-.11l-.55-.44c-.03-.03-.04-.05-.07-.07-.09-.1-.18-.19-.27-.28-.13-.07-.27-.13-.42-.14l-.67-.01v.85-.02c.05-.07.1-.16.11-.25-.01-.2.17-.38.39-.37l.24.02c.06.01.14.04.19.09l.54.46c.08.06.14.16.12.28v.03c-.02.24-.02.47-.02.7 0 .27.02.52.06.79v.02.04c.03-.02.05-.06.08-.1.08-.08.18-.14.28-.14.07 0 .13.02.18.06l.12.08c.02 0 .05.02.07.04l.55.44c.07.07.13.18.13.28 0 .03-.02.06-.03.1l-.35 1.09c-.06.2-.25.33-.46.32h-.08c-.21-.01-.41-.01-.61-.01-.23 0-.46-.01-.71-.01h-2.3c-.09 0-.17.01-.23.01-.04 0-.09 0-.14 0-.06.01-.12.01-.18.01-.05 0-.12 0-.14-.02-.05.02-.1.02-.15.02-.02 0-.05 0-.08 0-.25-.02-.51-.02-.75-.02-.16 0-.34.01-.5.01-.07.01-.15.01-.21.01h-.1l-.11-.06-.51-.46c-.42-.35-.66-.87-.94-1.34-.01-.02-.03-.06-.05-.1 0 .25.01.5.02.75l.45.38c.08.07.13.16.13.27v.19c0 .2-.15.36-.35.37-.04 0-.07 0-.1 0h-.02c-.31-.02-.65-.02-.96-.02-.32 0-.64 0-.96.02-.03 0-.06 0-.1 0-.09.01-.17-.04-.23-.08l-.55-.45c-.08-.08-.13-.17-.13-.29v-.2c0-.19.16-.35.35-.35h.21c.02-.65.02-1.31.02-1.97v-1.51c-.05.04-.1.05-.15.05h-.25c-.01.37-.01.77-.01 1.14-.01.55-.01 1.1-.04 1.66-.04.59-.29 1.18-.76 1.58-.42.34-.99.5-1.54.5-.43 0-.87-.04-1.27-.2-.17-.07-.31-.16-.46-.28l-.54-.44c-.26-.23-.47-.53-.59-.84-.22-.57-.18-1.21-.18-1.84v-.27l-.06.03c-.04.01-.07.01-.11.01-.08 0-.16-.04-.22-.08l-.54-.46c-.03-.02-.04-.05-.07-.07-.01-.02-.01-.03-.03-.05v-.01c-.06-.09-.14-.19-.21-.27-.2-.04-.41-.04-.63-.06v1.65c0 .6 0 1.21.03 1.81l.53.46c.09.07.14.16.13.28v.19c.01.19-.17.37-.38.36-.03 0-.07 0-.1 0-.36-.02-.71-.02-1.07-.02-.35 0-.7 0-1.07.02-.05 0-.1 0-.15 0-.09 0-.18-.04-.23-.09l-.55-.44c-.07-.08-.14-.18-.14-.29v-.17c0-.22.17-.38.37-.38h.34c.01-.79.01-1.59.01-2.38v-.96c-.1 0-.19.03-.29.05-.23.21-.39.47-.58.7-.05.09-.18.17-.31.17-.04 0-.07 0-.12 0l-.16-.06c-.03-.02-.08-.03-.12-.06l-.51-.43v.22c0 .3 0 .62-.01.92v.56c.01.3.01.6.01.92v.46l.51.43c.09.07.14.16.12.27v.2c.02.19-.16.37-.36.36-.05 0-.09 0-.13 0-.33-.02-.66-.02-.99-.02-.36 0-.72 0-1.09.02-.04 0-.08 0-.11 0-.09 0-.18-.04-.24-.09l-.54-.44c-.08-.08-.14-.18-.12-.29v-.2c-.02-.2.17-.37.36-.35h.26c.02-.63.03-1.27.03-1.91v-.51c0-.35-.01-.72-.01-1.1-.02 0-.02 0-.02-.01l-.08-.05c-.06.07-.16.15-.27.15h-.11c-.01.03-.01.05-.01.09-.1.99-.17 2.01-.18 3v1.22c0 .07 0 .13-.01.2-.05.19-.22.35-.41.35-.17 0-.36-.05-.48-.16l-.54-.46c-.02 0-.02-.01-.04-.03-.33-.31-.65-.67-.96-1.01-.27-.31-.53-.59-.81-.9-.15-.17-.31-.36-.49-.55-.11-.13-.21-.26-.32-.39v.46c0 .44.03.88.05 1.33 0 .11.02.22.02.32.01.02.04.04.05.04l.54.46c.08.07.13.18.12.28v.19c.03.19-.16.37-.35.36-.08 0-.13 0-.2 0-.23-.01-.46-.02-.7-.02-.2 0-.4.01-.6.01-.08.01-.15.01-.24.01-.02 0-.04 0-.08-.01-.02.01-.05.01-.09.01-.02 0-.04 0-.08 0-.25-.02-.51-.02-.75-.02-.18 0-.34.01-.51.01-.07.01-.14.01-.21.01h-.11l-.08-.06-.53-.46c-.43-.35-.66-.87-.92-1.34-.01-.02-.04-.06-.05-.1 0 .25 0 .5.01.75l.45.38c.07.07.12.16.12.27v.19c0 .2-.15.36-.34.37-.04 0-.06 0-.1 0h-.021c-.319-.02-.639-.02-.959-.02s-.64 0-.96.02c-.03 0-.06 0-.101 0-.099.01-.179-.04-.239-.08l-.55-.45c-.08-.08-.12-.17-.12-.29v-.17c-.03-.21.159-.38.359-.38h.211c.01-.65.01-1.31.01-1.97v-1.51c-.05.04-.1.05-.161.05h-.249v.01c-.011.36-.011.76-.011 1.13 0 .55 0 1.1-.039 1.66-.04.59-.281 1.18-.75 1.56-.44.36-1.001.52-1.54.52-.43 0-.87-.04-1.281-.2-.169-.07-.32-.16-.439-.28l-.55-.44c-.26-.23-.47-.53-.601-.84-.209-.57-.159-1.21-.179-1.84v-.28l-.12.06c-.07.02-.12.04-.161.04-.09 0-.169-.04-.219-.09l-.55-.44c-.02-.03-.041-.04-.06-.08-.011-.02-.03-.04-.041-.04 0-.01-.009-.03-.019-.04-.11-.12-.2-.24-.321-.36-.019 0-.03 0-.069-.01-.3-.04-.631-.05-.93-.07v.11c-.011.31-.011.65-.011.97.021-.01.041-.04.05-.05.051-.08.081-.17.111-.25.03-.17.179-.3.37-.3l.18.01c.07-.01.149.03.2.08l.54.45c.079.07.15.17.13.31-.02.27 0 .52 0 .78 0 .24 0 .49.029.73 0 .18-.129.37-.299.39l-.17.03-.04.01c-.121 0-.19-.04-.26-.08l-.55-.46c-.061-.05-.091-.12-.1-.19-.06 0-.13 0-.191-.01v.96l.011.04c.01.01.02.01.03.01l.54.46c.079.07.13.16.12.27v.2c.01.19-.17.37-.37.36-.04 0-.08 0-.101 0-.359-.02-.719-.02-1.079-.02-.311 0-.64 0-.971.02-.049 0-.099 0-.15 0-.089 0-.17-.04-.23-.08l-.55-.45c-.08-.08-.129-.18-.119-.3zm13.76-3.47c0-.11-.011-.22-.05-.31-.06-.03-.15-.04-.221-.05l-.049.01-.03 1.09c.22-.18.35-.46.35-.74zm25.67.74c.22-.18.36-.46.36-.74 0-.11-.01-.22-.04-.31-.09-.03-.17-.04-.24-.05l-.06.01zm5.59 2.41c.17-.01.37-.01.54-.03.14-.02.29-.08.41-.17.12-.1.23-.2.33-.3l-.16.03c-.02 0-.05 0-.09 0-.08 0-.16-.03-.22-.07l-.54-.45c-.06-.05-.09-.1-.11-.17-.07 0-.13-.01-.21-.01v.1c0 .3.03.59.03.88 0 .06 0 .12.02.19z"/><path d="m59.229 5.148c.009-.01.049-.04.06-.05.059-.08.08-.17.099-.25.02-.17.181-.3.37-.3l.18.01c.08-.01.151.03.211.08l.539.45c.08.07.14.17.14.31-.02.27-.02.52-.02.78 0 .24.02.49.04.73 0 .18-.14.37-.3.39l-.169.03-.061.01c-.1 0-.18-.04-.24-.08l-.54-.46c-.06-.05-.1-.12-.13-.19-.039 0-.11 0-.179-.01v.96.04c.009.01.019.01.049.01l.52.46c.1.07.14.16.14.27v.2c.011.19-.18.37-.38.36-.02 0-.069 0-.11 0-.339-.02-.69-.02-1.059-.02-.311 0-.651 0-.971.02-.06 0-.12 0-.16 0-.079 0-.16-.04-.229-.08l-.541-.45c-.08-.08-.119-.18-.119-.3v-.19c0-.2.159-.37.359-.35h.18c.02-.7.041-1.4.041-2.11v-.49c0-.3-.021-.6-.021-.92-.009 0-.02 0-.03-.01l-.529-.45c-.09-.06-.131-.16-.131-.27v-.2c0-.19.17-.35.361-.35h.099c.4.01.8.01 1.201.01h.559c.63-.01 1.261-.01 1.891-.01.069 0 .18 0 .26-.02.03-.01.079-.01.12-.01h.009c.09-.01.17.03.23.07l.14.13c.081-.11.201-.17.32-.17h.15c.361.01.711.01 1.081.01.309 0 .649 0 .98-.01h.139c.08 0 .17.02.22.08l.081.07c.06-.11.159-.15.299-.15h.23c.27.01.53.01.79.01h.411c.06-.01.11-.01.17-.01.039 0 .06 0 .099.01.111.01.21.06.29.14l.541.43c.02.01.039.04.06.07.11.11.189.22.28.33.5.56.99 1.14 1.47 1.71.09.08.15.17.249.27-.02-.31-.02-.66-.03-.98-.02-.23-.02-.44-.03-.66-.009-.01-.039-.04-.06-.04l-.52-.45c-.11-.07-.149-.18-.129-.3v-.17c-.02-.2.15-.36.36-.36h.129c.25.01.501.01.77.01.191 0 .38 0 .58-.01h.15c.08 0 .181.02.241.08l.049.05c.08-.09.19-.13.301-.13.069 0 .14 0 .209.01.311.01.61.01.921.01l2.65-.01h.2c.03-.01.06-.01.099-.01.09 0 .17.02.251.1l.54.45c.04.03.079.08.1.15.05.15.08.3.119.44.06.23.111.47.18.69.02.04.031.09.031.16.01.13-.07.24-.2.3l-.13.07c-.051.02-.1.05-.15.05-.11 0-.191-.05-.26-.11l-.53-.44c-.02-.03-.05-.05-.07-.07-.081-.1-.18-.19-.29-.28-.12-.06-.251-.13-.401-.14l-.679-.01-.011.85c.011-.01.021-.02.021-.02.05-.07.089-.16.11-.25-.021-.2.159-.38.389-.37l.23.02c.021.01.021.01.03.01.06.01.11.04.161.08l.529.46c.09.05.161.16.161.27l-.02.04c-.021.24-.021.47-.021.7 0 .25.021.52.051.79v.02.04c.029-.02.059-.06.089-.1.06-.08.171-.14.271-.14.07 0 .13.02.189.07l.111.07c.03 0 .05.02.069.04l.55.44c.071.07.121.18.121.28 0 .04-.011.07-.02.11l-.341 1.08c-.069.2-.259.33-.46.32h-.089c-.191-.01-.401-.01-.601-.01-.23 0-.479-.01-.72-.01h-2.299c-.08 0-.161.01-.23.01-.041 0-.08 0-.14 0-.06.01-.12.01-.18.01-.101 0-.19-.04-.25-.09l-.55-.44c-.021-.03-.051-.07-.071-.11v.15c0 .07-.019.13-.019.2-.03.19-.211.35-.41.35-.181 0-.34-.05-.471-.16l-.539-.46c-.011 0-.02-.01-.03-.03-.351-.31-.651-.67-.98-1.01-.271-.32-.55-.62-.821-.93-.159-.17-.31-.34-.469-.52-.101-.13-.21-.26-.331-.39v.46c0 .43.041.86.05 1.3.021.11.021.24.021.35.02.02.05.04.05.04l.539.46c.09.07.14.18.14.28v.19c.021.19-.179.37-.38.36-.069 0-.119 0-.19 0-.23-.01-.44-.02-.689-.02-.2 0-.411.01-.6.01-.081.01-.161.01-.241.01-.07 0-.15-.04-.23-.08l-.159-.14c-.06.13-.201.23-.341.22-.039 0-.11 0-.14 0-.32-.02-.64-.02-.98-.02-.359 0-.72 0-1.08.02-.039 0-.08 0-.119 0-.09 0-.17-.04-.241-.09l-.539-.44c-.09-.08-.141-.18-.141-.29v-.2c0-.2.18-.35.38-.35h.251c.039-.63.039-1.27.039-1.91v-.54s0 .01-.03.01l-.14.07c-.06.02-.099.04-.15.04-.09 0-.17-.04-.23-.09l-.54-.44c-.01-.03-.04-.04-.049-.08-.021-.02-.03-.04-.051-.04-.009-.01-.009-.03-.029-.04-.111-.13-.21-.24-.311-.36-.03 0-.039 0-.069-.01-.311-.04-.621-.05-.95-.07v.11.97zm4.85-.37v.92.56.92c0 .16.009.31.009.46l.131.12c.049-.13.189-.23.339-.23h.181c.069-.13.079-.27.09-.42.039-.77.06-1.53.06-2.31v-.71c-.071 0-.15-.04-.2-.09l-.081-.06c-.069.08-.189.16-.299.16h-.221c0 .22-.009.45-.009.68zm6.539-.59c-.099.99-.159 2.01-.17 3v.53c.061-.12.2-.19.331-.19h.29v-2.38c0-.39 0-.77-.021-1.15l-.03-.03c-.069.07-.159.13-.279.13h-.11c0 .03 0 .05-.011.09zm2.731 2.2v.1c0 .3.02.59.03.88 0 .06 0 .12.009.19.17-.01.37-.01.55-.03.151-.02.281-.08.411-.17.109-.1.23-.2.32-.3l-.151.03c-.019 0-.06 0-.09 0-.079 0-.17-.03-.219-.07l-.54-.45c-.051-.05-.1-.1-.13-.17-.05 0-.121-.01-.19-.01zm3.9 1.49c-.01-.2.17-.37.36-.35h.19c.02-.7.02-1.4.02-2.11v-.49c0-.3 0-.6-.011-.92-.009 0-.019 0-.03-.01l-.529-.45c-.081-.06-.12-.16-.12-.27v-.2c-.021-.19.15-.35.359-.35h.11c.391.01.78.01 1.171.01h.58c.63-.01 1.259-.01 1.889-.01.09 0 .171 0 .26-.02.041-.01.081-.01.12-.01.101-.01.17.03.241.07l.18.16c.05-.12.19-.2.34-.2h.12c.37.01.75.01 1.12.01.33 0 .65 0 .98-.01h.15c.08 0 .159.02.24.08l.53.45c.09.06.139.17.139.28v.19c.011.21-.179.37-.379.37h-.25c-.02 0-.08 0-.1 0-.021.3-.021.59-.021.89v.47c.011.49.021 1.01.041 1.5.01.16.02.33.08.47.09.02.169.03.26.03.24-.01.49-.09.7-.24.27-.23.37-.59.37-.93v-1.11c-.011-.39-.03-.81-.07-1.21l-.48-.41c-.091-.07-.14-.18-.14-.28v-.19c-.011-.2.17-.38.37-.36h.13c.269.01.54.01.819.01.191 0 .381 0 .591-.01h.12c.09 0 .18.02.26.08v.02c.06-.08.16-.1.26-.1h.09c.33.01.68.01 1.02.01.27 0 .54 0 .81-.01h.599c.541 0 1.081.16 1.491.51l.55.45c.009.01.02.02.05.04.28.25.54.61.54 1.01.03.68-.43 1.27-1.04 1.52.03.02.04.05.06.07.2.24.36.49.51.73.03.03.06.09.09.13.08.11.17.22.25.32.03.02.069.02.11.02h.37c.08-.13.08-.27.1-.42.04-.77.07-1.53.07-2.31v-.63c0-.03 0-.06-.01-.08-.08 0-.16-.04-.22-.09l-.55-.44c-.07-.07-.12-.18-.12-.28v-.2c0-.19.18-.37.36-.35h.25c.27.01.52.01.8.01h.39c.06-.01.11-.01.17-.01.04 0 .08 0 .11.01.1.01.18.06.26.12 0 0 .02 0 .02.02l.54.43c.02.01.04.04.06.06.59.68 1.17 1.37 1.77 2.05.07.08.15.17.23.27-.01-.31-.01-.66-.03-.98 0-.23 0-.44-.02-.66-.03-.01-.05-.04-.06-.04l-.54-.45c-.08-.07-.14-.18-.13-.3v-.17c-.01-.2.18-.36.37-.36h.14c.24.01.5.01.76.01.19 0 .4 0 .6-.01h.14c.08 0 .17.02.24.08l.07.05c.07-.09.17-.13.28-.13h.13c.37.01.72.01 1.09.01.33 0 .65 0 .98-.01h.14c.08 0 .16.02.23.08l.23.2c.02-.08.04-.16.06-.24 0-.02.01-.03.02-.04.05-.18.21-.31.39-.31.1 0 .2.04.28.1l.19.15c.05.02.12.03.19.03.49.03 1 .05 1.5.04h.43c.42.01.85 0 1.26-.03.08 0 .14-.01.2-.01.12-.01.24-.04.35-.1.04-.04.08-.06.13-.1.07-.04.15-.08.26-.08.08 0 .17.04.24.08l.27.23h.18c.37.01.75.01 1.13.01.32 0 .64 0 .97-.01h.15c.1 0 .18.02.23.08l.55.45c.07.05.13.17.13.28v.19c.01.21-.18.37-.39.37h-.25c-.02 0-.05 0-.09.01 0 .29-.01.58-.01.88v.47c.01.49.03 1.01.04 1.5.01.16.01.33.06.47.09.02.18.03.26.03.27-.01.51-.09.71-.24.27-.23.36-.59.36-.93v-1.11c0-.39-.02-.81-.06-1.21l-.49-.41c-.08-.07-.13-.18-.13-.28v-.19c0-.2.17-.38.38-.36h.13c.26.01.54.01.8.01.2 0 .41 0 .6-.01h.11c.09 0 .2.02.27.08l.01.02c.07-.08.15-.1.24-.1h.08c.36.01.7.01 1.05.01.26 0 .53 0 .8-.01h.6c.54 0 1.09.16 1.52.51l.52.45c.01.01.03.02.05.04.28.25.53.61.53 1.01.02.68-.41 1.27-1.01 1.52.02.02.04.05.06.07.15.21.3.44.45.66.05.07.09.13.14.2.07.11.16.23.24.34h.12c.04 0 .1 0 .14.03.04-.03.1-.03.14-.03h.29v-2.38c0-.39 0-.77-.01-1.15l-.54-.44c-.07-.07-.12-.18-.12-.28v-.19c0-.19.17-.36.36-.36.08 0 .16 0 .23.01.31.01.6.01.9.01l2.66-.01h.21c.03-.01.06-.01.08-.01.08 0 .19.02.25.1l.55.45c.04.03.07.08.11.14.04.16.08.3.11.44.06.24.12.47.19.7.02.04.02.09.02.16 0 .13-.06.24-.19.3l-.13.07c-.04.02-.1.05-.17.05-.08 0-.17-.05-.23-.11l-.55-.44c-.03-.03-.04-.05-.07-.07-.09-.1-.18-.19-.27-.28-.13-.07-.27-.13-.42-.14l-.67-.01v.85-.02c.05-.07.1-.16.11-.25-.01-.2.17-.38.39-.37l.24.02c.06.01.14.04.19.09l.54.46c.08.06.14.16.12.28v.03c-.02.24-.02.47-.02.7 0 .27.02.52.06.79v.02.04c.03-.02.05-.06.08-.1.08-.08.18-.14.28-.14.07 0 .13.02.18.06l.12.08c.02 0 .05.02.07.04l.55.44c.07.07.13.18.13.28 0 .03-.02.06-.03.1l-.35 1.09c-.06.2-.25.33-.46.32h-.08c-.21-.01-.41-.01-.61-.01-.23 0-.46-.01-.71-.01h-2.3c-.09 0-.17.01-.23.01-.04 0-.09 0-.14 0-.06.01-.12.01-.18.01-.05 0-.12 0-.14-.02-.05.02-.1.02-.15.02-.02 0-.05 0-.08 0-.25-.02-.51-.02-.75-.02-.16 0-.34.01-.5.01-.07.01-.15.01-.21.01h-.1l-.11-.06-.51-.46c-.42-.35-.66-.87-.94-1.34-.01-.02-.03-.06-.05-.1 0 .25.01.5.02.75l.45.38c.08.07.13.16.13.27v.19c0 .2-.15.36-.35.37-.04 0-.07 0-.1 0h-.02c-.31-.02-.65-.02-.96-.02-.32 0-.64 0-.96.02-.03 0-.06 0-.1 0-.09.01-.17-.04-.23-.08l-.55-.45c-.08-.08-.13-.17-.13-.29v-.2c0-.19.16-.35.35-.35h.21c.02-.65.02-1.31.02-1.97v-1.51c-.05.04-.1.05-.15.05h-.25c-.01.37-.01.77-.01 1.14-.01.55-.01 1.1-.04 1.66-.04.59-.29 1.18-.76 1.58-.42.34-.99.5-1.54.5-.43 0-.87-.04-1.27-.2-.17-.07-.31-.16-.46-.28l-.54-.44c-.26-.23-.47-.53-.59-.84-.22-.57-.18-1.21-.18-1.84v-.27l-.06.03c-.04.01-.07.01-.11.01-.08 0-.16-.04-.22-.08l-.54-.46c-.03-.02-.04-.05-.07-.07-.01-.02-.01-.03-.03-.05v-.01c-.06-.09-.14-.19-.21-.27-.2-.04-.41-.04-.63-.06v1.65c0 .6 0 1.21.03 1.81l.53.46c.09.07.14.16.13.28v.19c.01.19-.17.37-.38.36-.03 0-.07 0-.1 0-.36-.02-.71-.02-1.07-.02-.35 0-.7 0-1.07.02-.05 0-.1 0-.15 0-.09 0-.18-.04-.23-.09l-.55-.44c-.07-.08-.14-.18-.14-.29v-.17c0-.22.17-.38.37-.38h.34c.01-.79.01-1.59.01-2.38v-.96c-.1 0-.19.03-.29.05-.23.21-.39.47-.58.7-.05.09-.18.17-.31.17-.04 0-.07 0-.12 0l-.16-.06c-.03-.02-.08-.03-.12-.06l-.51-.43v.22c0 .3 0 .62-.01.92v.56c.01.3.01.6.01.92v.46l.51.43c.09.07.14.16.12.27v.2c.02.19-.16.37-.36.36-.05 0-.09 0-.13 0-.33-.02-.66-.02-.99-.02-.36 0-.72 0-1.09.02-.04 0-.08 0-.11 0-.09 0-.18-.04-.24-.09l-.54-.44c-.08-.08-.14-.18-.12-.29v-.2c-.02-.2.17-.37.36-.35h.26c.02-.63.03-1.27.03-1.91v-.51c0-.35-.01-.72-.01-1.1-.02 0-.02 0-.02-.01l-.08-.05c-.06.07-.16.15-.27.15h-.11c-.01.03-.01.05-.01.09-.1.99-.17 2.01-.18 3v1.22c0 .07 0 .13-.01.2-.05.19-.22.35-.41.35-.17 0-.36-.05-.48-.16l-.54-.46c-.02 0-.02-.01-.04-.03-.33-.31-.65-.67-.96-1.01-.27-.31-.53-.59-.81-.9-.15-.17-.31-.36-.49-.55-.11-.13-.21-.26-.32-.39v.46c0 .44.03.88.05 1.33 0 .11.02.22.02.32.01.02.04.04.05.04l.54.46c.08.07.13.18.12.28v.19c.03.19-.16.37-.35.36-.08 0-.13 0-.2 0-.23-.01-.46-.02-.7-.02-.2 0-.4.01-.6.01-.08.01-.15.01-.24.01-.02 0-.04 0-.08-.01-.02.01-.05.01-.09.01-.02 0-.04 0-.08 0-.25-.02-.51-.02-.75-.02-.18 0-.34.01-.51.01-.07.01-.14.01-.21.01h-.11l-.08-.06-.53-.46c-.43-.35-.66-.87-.92-1.34-.01-.02-.04-.06-.05-.1 0 .25 0 .5.01.75l.45.38c.07.07.12.16.12.27v.19c0 .2-.15.36-.34.37-.04 0-.06 0-.1 0h-.021c-.319-.02-.639-.02-.959-.02s-.64 0-.96.02c-.03 0-.06 0-.101 0-.099.01-.179-.04-.239-.08l-.55-.45c-.08-.08-.12-.17-.12-.29v-.17c-.03-.21.159-.38.359-.38h.211c.01-.65.01-1.31.01-1.97v-1.51c-.05.04-.1.05-.161.05h-.249v.01c-.011.36-.011.76-.011 1.13 0 .55 0 1.1-.039 1.66-.04.59-.281 1.18-.75 1.56-.44.36-1.001.52-1.54.52-.43 0-.87-.04-1.281-.2-.169-.07-.32-.16-.439-.28l-.55-.44c-.26-.23-.47-.53-.601-.84-.209-.57-.159-1.21-.179-1.84v-.28l-.12.06c-.07.02-.12.04-.161.04-.09 0-.169-.04-.219-.09l-.55-.44c-.02-.03-.041-.04-.06-.08-.011-.02-.03-.04-.041-.04 0-.01-.009-.03-.019-.04-.11-.12-.2-.24-.321-.36-.019 0-.03 0-.069-.01-.3-.04-.631-.05-.93-.07v.11c-.011.31-.011.65-.011.97.021-.01.041-.04.05-.05.051-.08.081-.17.111-.25.03-.17.179-.3.37-.3l.18.01c.07-.01.149.03.2.08l.54.45c.079.07.15.17.13.31-.02.27 0 .52 0 .78 0 .24 0 .49.029.73 0 .18-.129.37-.299.39l-.17.03-.04.01c-.121 0-.19-.04-.26-.08l-.55-.46c-.061-.05-.091-.12-.1-.19-.06 0-.13 0-.191-.01v.96l.011.04c.01.01.02.01.03.01l.54.46c.079.07.13.16.12.27v.2c.01.19-.17.37-.37.36-.04 0-.08 0-.101 0-.359-.02-.719-.02-1.079-.02-.311 0-.64 0-.971.02-.049 0-.099 0-.15 0-.089 0-.17-.04-.23-.08l-.55-.45c-.08-.08-.129-.18-.119-.3zm13.76-3.47c0-.11-.011-.22-.05-.31-.06-.03-.15-.04-.221-.05l-.049.01-.03 1.09c.22-.18.35-.46.35-.74zm25.67.74c.22-.18.36-.46.36-.74 0-.11-.01-.22-.04-.31-.09-.03-.17-.04-.24-.05l-.06.01zm5.59 2.41c.17-.01.37-.01.54-.03.14-.02.29-.08.41-.17.12-.1.23-.2.33-.3l-.16.03c-.02 0-.05 0-.09 0-.08 0-.16-.03-.22-.07l-.54-.45c-.06-.05-.09-.1-.11-.17-.07 0-.13-.01-.21-.01v.1c0 .3.03.59.03.88 0 .06 0 .12.02.19z" fill="none" stroke="#231f20" stroke-width=".26"/><path d="m58.378 5.248v.34c.301 0 .61-.01.75-.03.12-.02.28-.11.391-.27.099-.11.14-.26.17-.37.009-.03.03-.05.06-.05l.189.01c.02 0 .05.01.05.04-.03.11-.03.71-.03.82 0 .27.03.59.04.74 0 .03-.01.04-.06.06l-.159.03c-.041 0-.06-.01-.071-.06-.01-.04-.09-.27-.139-.33-.08-.13-.23-.26-.37-.29-.23-.04-.49-.05-.821-.05v.27c0 .21.011 1.42.011 1.5 0 .2.079.22.189.22h.44c.04 0 .07.02.07.05v.2c0 .04-.03.06-.059.06-.081 0-.38-.02-1.181-.02-.729 0-1.01.02-1.129.02-.041 0-.051-.02-.051-.07v-.19c0-.03.01-.05.06-.05h.26c.15 0 .21-.02.23-.13 0-.14.03-1.03.03-2.28v-.49c0-.32-.02-1.31-.02-1.39 0-.14-.109-.22-.309-.22h-.311c-.039 0-.06-.01-.06-.04v-.2c0-.03.021-.04.051-.04.079 0 .369.02 1.3.02.09 0 2.089-.02 2.45-.02.18 0 .339-.03.41-.03.019 0 .049.04.049.11l.3 1.17c.01.03 0 .05-.02.06l-.14.08c-.04.02-.07 0-.109-.07-.101-.12-.271-.36-.591-.66-.14-.14-.329-.28-.529-.32-.181-.06-.98-.07-1.33-.07 0 .09-.011 1.52-.011 1.94zm3.711.37v-.51c0-.16-.03-1.44-.03-1.53-.021-.18-.101-.26-.26-.26h-.35c-.051 0-.071-.01-.071-.04v-.2c0-.03.02-.04.05-.04.111 0 .481.02 1.231.02.76 0 1.019-.02 1.119-.02.03 0 .05.02.05.05v.19c0 .03-.02.04-.06.04h-.23c-.179 0-.29.06-.29.21 0 .06-.02 1.63-.02 1.72v.55c0 .06.02 1.73.02 1.79 0 .22.111.24.24.24h.32c.041 0 .06.02.06.07v.2c0 .02-.019.04-.06.04-.1 0-.389-.02-1.119-.02-.791 0-1.111.02-1.201.02-.039 0-.06-.02-.06-.06v-.2c0-.03.021-.05.06-.05h.21c.161 0 .32-.01.35-.18.011-.1.041-1.64.041-2.03zm7.18 1.07v-.65c0-.63-.011-.99-.02-1.35-.01-.27-.041-.97-.071-1.07-.049-.19-.23-.3-.389-.3h-.24c-.041 0-.06-.01-.06-.06v-.17c0-.04.019-.05.07-.05.069 0 .34.02.899.02.44 0 .621-.02.711-.02.069 0 .069.01.069.05v.17c0 .04 0 .06-.03.06h-.209c-.141 0-.221.12-.23.39-.051.48-.17 2.09-.17 3.03v1.23c0 .1-.01.23-.111.23-.12 0-.23-.03-.31-.12-.12-.11-.5-.48-.96-1-.54-.6-1.139-1.29-1.279-1.45-.131-.13-1.181-1.36-1.341-1.61h-.079v1.46c0 .59.079 1.46.079 1.74.03.41.16.61.48.61h.191c.049 0 .049.04.049.09v.16c0 .04 0 .06-.049.06-.08 0-.54-.02-.89-.02-.241 0-.771.02-.831.02-.03 0-.039-.02-.039-.07v-.19c0-.01.009-.05.049-.05h.26c.16 0 .29-.22.32-.7.02-.12.071-1.27.071-2.33v-.63c0-.42-.26-.85-.651-.85l-.18-.01c-.05 0-.05-.01-.05-.03v-.2c0-.03 0-.04.05-.04.03 0 .09.01.23.01.15 0 .4.01.79.01.271 0 .49-.01.581-.01.099 0 .159.03.219.08.041.04 1.53 1.78 1.751 2.03.119.13 1.21 1.44 1.29 1.53zm3.26-3.38-.02 2.07c.329 0 .679-.02.77-.04.12-.04.229-.09.339-.23.09-.1.181-.3.181-.44 0-.04.019-.07.06-.07l.2.04c.04 0 .07 0 .06.04-.02.13-.02.5-.02.74 0 .33.03.68.039.82.011.04-.019.05-.06.07l-.179.02c-.021.01-.04 0-.051-.05-.03-.12-.11-.27-.14-.36-.109-.15-.279-.23-.429-.26-.2-.01-.441-.04-.77-.04v.43c0 .38.03 1.08.03 1.21 0 .37.08.5.179.53.12.04.251.08.64.08.131 0 .451-.02.61-.04.14 0 .37-.07.57-.22.191-.15.61-.59.771-.76.03-.03.05-.04.069-.02l.131.07c.03.01.039.04.03.05l-.331 1.08c-.019.07-.079.11-.18.11-.029 0-.2-.01-.679-.02h-3.26c-.151.01-.241.02-.31.02-.06 0-.071-.02-.071-.08v-.14c0-.05.011-.09.071-.09h.23c.359 0 .38-.04.38-.28v-2.4c0-.6-.01-1.47-.021-1.53-.03-.24-.109-.3-.32-.3h-.29c-.039 0-.039-.01-.039-.07v-.16c0-.01 0-.04.06-.04.159 0 .43.02 1.13.02l2.65-.01c.11 0 .26-.01.299-.01.041 0 .041.01.051.03.039.09.28 1.07.32 1.16.009.02.009.04-.021.06l-.12.06c-.03.01-.06 0-.089-.03-.051-.06-.721-.7-.9-.79-.161-.1-.361-.19-.58-.22l-.99-.01zm6.74 1.94v.34c.299 0 .589-.01.75-.03.13-.02.269-.11.39-.27.079-.11.13-.26.15-.37.019-.03.049-.05.09-.05l.17.01c.019 0 .04.01.04.04-.021.11-.021.71-.021.82 0 .27.03.59.041.74 0 .03-.011.04-.05.06l-.16.03c-.031 0-.061-.01-.061-.06-.03-.04-.109-.27-.159-.33-.09-.13-.23-.26-.37-.29-.24-.04-.5-.05-.81-.05v.27 1.5c0 .2.09.22.2.22h.43c.039 0 .08.02.08.05v.2c0 .04-.011.06-.071.06-.08 0-.359-.02-1.159-.02-.741 0-1.031.02-1.151.02-.02 0-.039-.02-.039-.07v-.19c0-.03.03-.05.05-.05h.27c.15 0 .219-.02.23-.13 0-.14.039-1.03.039-2.28v-.49c0-.32-.03-1.31-.03-1.39 0-.14-.099-.22-.31-.22h-.309c-.041 0-.06-.01-.06-.04v-.2c0-.03.019-.04.049-.04.071 0 .361.02 1.281.02.12 0 2.099-.02 2.469-.02.171 0 .331-.03.38-.03.051 0 .061.04.081.11l.3 1.17c0 .03 0 .05-.011.06l-.17.08c-.039.02-.039 0-.099-.07-.101-.12-.27-.36-.591-.66-.129-.14-.329-.28-.52-.32-.18-.06-.989-.07-1.339-.07zm3.66.13v-1.69c0-.25-.05-.37-.21-.37h-.37c-.03 0-.041-.01-.041-.06v-.17c0-.04.011-.05.071-.05.08 0 .44.02 1.24.02.66 0 1.029-.02 1.12-.02.06 0 .06.01.06.05v.19c0 .03 0 .04-.06.04h-.25c-.27 0-.391.16-.4.3-.021.07-.021.56-.021.92v.47c0 .38.03 1.28.03 1.5 0 .34.081.66.23.86.271.28.621.39.961.39.279 0 .69-.12.889-.3.311-.27.481-.65.481-1.17v-1.11c0-.59-.07-1.37-.1-1.53-.04-.18-.151-.33-.28-.33h-.24c-.05 0-.06-.01-.06-.04v-.19c0-.04.01-.05.06-.05.06 0 .42.02.949.02.391 0 .641-.02.711-.02s.07.03.07.05v.16c0 .05 0 .07-.04.07h-.23c-.29 0-.32.22-.341.28-.019.1-.019 1.08-.019 1.19 0 .1 0 1.34-.03 1.62-.04.58-.241 1.04-.65 1.37-.32.28-.831.43-1.34.43-.35 0-.84-.04-1.15-.17-.37-.14-.7-.48-.87-.95-.15-.29-.17-.78-.17-1.71zm5.8.18v-.69c0-.53 0-1-.011-1.18-.009-.25-.099-.37-.209-.37h-.29c-.04 0-.06-.01-.06-.04v-.19c0-.04.02-.05.06-.05.06 0 .29.02 1.11.02.429 0 1.1-.02 1.409-.02.591 0 1.021.2 1.341.48.26.23.449.49.449.77 0 .89-.739 1.32-1.409 1.37v.05c.24.06.35.21.5.38.1.11.52.74.58.85.03.04.45.59.6.75.1.09.39.14.55.14.06 0 .07.05.07.08v.16c0 .05-.01.07-.07.07-.05 0-.26-.02-.821-.02-.23 0-.509.01-.739.02-.22-.17-.68-1-.81-1.24-.25-.49-.57-1.01-.94-1.01h-.26v.37c0 .41.03 1.21.04 1.3.01.16.08.27.19.27h.32c.04 0 .05.04.05.08v.16c0 .05-.01.07-.12.07 0 0-.19-.02-.991-.02-.799 0-.979.02-1.049.02-.06 0-.06-.02-.06-.07v-.16c0-.04 0-.08.039-.08h.211c.16 0 .3-.04.3-.22.02-.7.02-1.37.02-2.05zm1.1-2.01-.04 2.08c.15.02.24.02.31.02.98 0 1.23-.9 1.23-1.24 0-.32-.12-.64-.29-.79-.271-.24-.61-.32-.84-.32-.13 0-.241.01-.29.06-.04.02-.08.12-.08.19zm8.43 3.14v-.65c0-.63 0-.99-.02-1.35-.01-.27-.05-.97-.07-1.07-.04-.19-.23-.3-.4-.3h-.24c-.05 0-.06-.01-.06-.06v-.17c0-.04.01-.05.08-.05.09 0 .32.02.89.02.45 0 .63-.02.71-.02.07 0 .07.01.07.05v.17c0 .04 0 .06-.03.06h-.21c-.12 0-.19.12-.23.39-.05.48-.17 2.09-.17 3.03v1.23c0 .1-.01.23-.11.23s-.21-.03-.3-.12c-.13-.11-.5-.48-.95-1-.55-.6-1.16-1.29-1.3-1.45-.12-.13-1.18-1.36-1.341-1.61h-.059v1.46c0 .59.07 1.46.07 1.74.01.41.15.61.47.61h.19c.04 0 .06.04.06.09v.16c0 .04-.02.06-.06.06-.08 0-.53-.02-.901-.02-.229 0-.739.02-.819.02-.04 0-.04-.02-.04-.07v-.19c0-.01 0-.05.04-.05h.27c.16 0 .289-.22.32-.7.01-.12.07-1.27.07-2.33v-.63c0-.42-.26-.85-.66-.85l-.18-.01c-.041 0-.041-.01-.041-.03v-.2c0-.03 0-.04.041-.04.05 0 .11.01.25.01s.4.01.8.01c.25 0 .47-.01.56-.01.1 0 .16.03.21.08.05.04 1.54 1.78 1.77 2.03.1.13 1.21 1.44 1.29 1.53zm2.15-1.07v-.51c0-.16-.02-1.44-.02-1.53 0-.18-.09-.26-.25-.26h-.37c-.03 0-.05-.01-.05-.04v-.2c0-.03.02-.04.05-.04.08 0 .47.02 1.22.02.77 0 1.01-.02 1.12-.02.04 0 .05.02.05.05v.19c0 .03-.02.04-.05.04h-.24c-.18 0-.3.06-.3.21 0 .06-.02 1.63-.02 1.72v.55c0 .06.02 1.73.02 1.79 0 .22.12.24.26.24h.32c.03 0 .06.02.06.07v.2c0 .02-.03.04-.07.04-.09 0-.4-.02-1.12-.02-.78 0-1.12.02-1.2.02-.03 0-.06-.02-.06-.06v-.2c0-.03.03-.05.06-.05h.23c.15 0 .3-.01.34-.18 0-.1.02-1.64.02-2.03zm4.4-.47v-1.77h-.26c-.26 0-.7.01-1.02.12-.17.12-.49.55-.69.82-.03.02-.04.05-.07.04l-.16-.06c-.04-.01-.04-.04-.04-.06.08-.3.32-1.23.36-1.39.03-.1.06-.12.11-.12.06 0 .07.02.16.11.08.1.22.17.48.17.41.03.72.05 1.52.05h.43c.83 0 1.15-.03 1.47-.05.17 0 .47-.08.55-.17.07-.07.13-.11.18-.11.04 0 .08.02.08.12.02.16.17 1.04.23 1.42.01.02 0 .05-.03.06l-.16.06c-.02.01-.04-.02-.08-.07-.15-.26-.44-.63-.64-.79-.18-.13-.86-.15-1.04-.15h-.24v1.97c0 .11 0 2.1.01 2.21 0 .17.07.27.25.27h.34c.07 0 .07.04.07.09v.16c0 .04 0 .06-.07.06s-.32-.02-1.16-.02c-.79 0-1.12.02-1.22.02-.06 0-.07-.03-.07-.08v-.14c0-.05.01-.09.05-.09h.38c.16 0 .25-.07.26-.2.02-.14.02-2.34.02-2.48zm4.14.23v-1.69c0-.25-.04-.37-.2-.37h-.35c-.06 0-.06-.01-.06-.06v-.17c0-.04 0-.05.06-.05.08 0 .45.02 1.25.02.67 0 1.02-.02 1.11-.02.06 0 .07.01.07.05v.19c0 .03-.01.04-.07.04h-.25c-.26 0-.39.16-.39.3-.01.07-.02.56-.02.92v.47c0 .38.02 1.28.03 1.5 0 .34.08.66.25.86.24.28.6.39.92.39.29 0 .71-.12.91-.3.3-.27.49-.65.49-1.17v-1.11c0-.59-.08-1.37-.11-1.53-.04-.18-.16-.33-.29-.33h-.23c-.06 0-.06-.01-.06-.04v-.19c0-.04 0-.05.06-.05.07 0 .41.02.93.02.41 0 .64-.02.71-.02.08 0 .08.03.08.05v.16c0 .05 0 .07-.04.07h-.23c-.29 0-.32.22-.34.28-.01.1-.01 1.08-.01 1.19 0 .1-.02 1.34-.04 1.62-.04.58-.23 1.04-.65 1.37-.32.28-.83.43-1.33.43-.35 0-.83-.04-1.17-.17-.34-.14-.68-.48-.86-.95-.13-.29-.17-.78-.17-1.71zm5.82.18v-.69c0-.53 0-1-.03-1.18 0-.25-.1-.37-.2-.37h-.31c-.04 0-.05-.01-.05-.04v-.19c0-.04.01-.05.05-.05.07 0 .31.02 1.13.02.42 0 1.09-.02 1.4-.02.59 0 1.03.2 1.33.48.28.23.45.49.45.77 0 .89-.73 1.32-1.39 1.37v.05c.23.06.34.21.5.38.1.11.51.74.58.85.05.04.44.59.6.75.1.09.38.14.55.14.05 0 .06.05.06.08v.16c0 .05-.01.07-.06.07-.06 0-.26-.02-.84-.02-.22 0-.5.01-.73.02-.22-.17-.68-1-.81-1.24-.26-.49-.57-1.01-.94-1.01h-.26v.37c0 .41.03 1.21.05 1.3.01.16.08.27.19.27h.31c.05 0 .06.04.06.08v.16c0 .05-.01.07-.13.07-.01 0-.19-.02-.99-.02-.79 0-.98.02-1.06.02-.06 0-.06-.02-.06-.07v-.16c0-.04 0-.08.04-.08h.23c.17 0 .3-.04.3-.22.03-.7.03-1.37.03-2.05zm1.09-2.01-.05 2.08c.15.02.24.02.3.02 1.01 0 1.24-.9 1.24-1.24 0-.32-.12-.64-.28-.79-.28-.24-.62-.32-.85-.32-.13 0-.22.01-.29.06-.04.02-.05.12-.07.19zm5.54-.24-.01 2.07c.34 0 .67-.02.76-.04.13-.04.23-.09.35-.23.08-.1.17-.3.17-.44 0-.04.03-.07.06-.07l.21.04c.04 0 .06 0 .06.04-.02.13-.02.5-.02.74 0 .33.02.68.04.82 0 .04-.02.05-.07.07l-.17.02c-.03.01-.05 0-.06-.05-.03-.12-.1-.27-.15-.36-.09-.15-.27-.23-.42-.26-.2-.01-.44-.04-.76-.04v.43c0 .38.04 1.08.04 1.21 0 .37.07.5.16.53.12.04.26.08.66.08.11 0 .43-.02.59-.04.15 0 .37-.07.58-.22.19-.15.62-.59.77-.76.04-.03.05-.04.06-.02l.13.07c.04.01.04.04.04.05l-.34 1.08c-.03.07-.08.11-.16.11-.04 0-.22-.01-.7-.02h-3.24c-.15.01-.26.02-.34.02-.04 0-.06-.02-.06-.08v-.14c0-.05.04-.09.08-.09h.23c.35 0 .38-.04.38-.28v-2.4c0-.6-.01-1.47-.03-1.53-.02-.24-.1-.3-.3-.3h-.31c-.01 0-.03-.01-.03-.07v-.16c0-.01.02-.04.04-.04.19 0 .44.02 1.14.02l2.65-.01c.12 0 .27-.01.29-.01.04 0 .06.01.08.03.02.09.28 1.07.3 1.16.02.02.02.04-.02.06l-.12.06c-.03.01-.07 0-.09-.03-.04-.06-.73-.7-.89-.79-.16-.1-.39-.19-.58-.22l-1-.01z" fill="#fef7c4"/><path d="m147.769 5.978c.01.5.01 1.03.02 1.55.4-.04.8-.26 1.06-.59.32-.4.46-.91.46-1.43 0-.43-.14-.87-.42-1.2-.25-.15-.54-.24-.85-.24-.08 0-.18-.01-.25 0-.01.03-.01.06-.01.07-.01.43-.01.88-.01 1.33zm-5.14.41v.1c0 .3.04.57.04.88 0 .06.02.12.02.17.17 0 .35 0 .53-.01.16-.03.3-.08.42-.17.11-.1.22-.2.32-.31l-.16.03c-.01.01-.05.01-.09.01-.07 0-.15-.03-.21-.08l-.53-.45c-.07-.05-.1-.1-.12-.16-.07-.01-.14-.01-.22-.01zm.04-1.46v-.01c.05-.08.1-.15.11-.25-.01-.2.16-.38.38-.37l.24.03h.04c.06 0 .11.04.16.08l.54.44c.08.07.12.18.12.29v.04c-.02.24-.02.47-.02.71s.02.51.03.76c.02.02.02.03.02.06v.01c.03-.03.05-.05.08-.09.08-.08.19-.14.28-.14.07 0 .14.02.19.06l.1.07c.03.01.06.02.08.05l.43.35c.02-.55.02-1.1.04-1.65v-.53c-.02-.28-.02-.54-.02-.81-.03-.02-.04-.02-.06-.03l-.28-.24c.01.06.02.1.02.13.09.24.13.44.2.67.01.04.04.08.04.15 0 .13-.08.24-.2.31l-.15.07c-.05.02-.1.02-.16.02-.09 0-.17-.02-.25-.08l-.53-.46c-.03-.01-.05-.03-.07-.05-.08-.11-.19-.19-.29-.29-.11-.07-.26-.13-.4-.13l-.67-.03zm-5.27-.11c.14-.15.21-.37.21-.57-.01-.05-.01-.11-.02-.18-.05-.02-.11-.03-.15-.03h-.03c-.01.26-.01.52-.01.78zm0 1.49v1.1.15c.12-.03.22-.09.3-.19.13-.18.14-.4.16-.6 0-.13-.03-.29-.08-.4-.12-.04-.26-.06-.38-.06zm-7.59-.39c-1.04.23-1.99.86-2.69 1.64 1.01-.31 1.93-.89 2.77-1.56zm-.9-1.41c-.02.03-.06.05-.08.08.09.01.17.02.26.02.08 0 .17-.01.25-.02.03-.01.07-.02.1-.02.1 0 .16.03.21.07l.28.25c.1-.04.18-.08.29-.11l-.48-.39c-.13-.1-.2-.24-.25-.41-.21.17-.4.35-.58.53zm-1.49-1.12c.32-.33.7-.59 1.1-.82.82-.45 1.75-.76 2.69-.78.31-.03.64.06.87.25l.53.45c.16.12.26.29.28.51.02.05.02.09.02.13 0 .28-.1.52-.26.73.16.03.32.11.46.21l.54.45c.05.05.09.1.13.15.22.05.43.1.62.17.04.01.07.04.09.05l.53.46c.04.03.08.07.1.12v-.47c0-.32-.01-.65-.02-.97-.01-.02-.01-.02-.03-.02l-.52-.45c-.08-.06-.14-.17-.14-.27v-.2c-.01-.19.18-.38.38-.37.05 0 .11 0 .15.01h1.41c.28 0 .55-.01.83-.01.5.01 1 .01 1.44.24.1.04.18.1.27.16l.54.46c.31.25.5.66.48 1.06.02.47-.23.86-.59 1.12l.35.29c.36.29.6.7.58 1.21-.01.09-.03.18-.04.27h.16v-2.38c0-.38-.01-.78-.01-1.17l-.53-.42c-.09-.06-.13-.19-.13-.31v-.16c0-.19.16-.37.36-.36h.22c.31.01.61.01.9.01l2.66-.01h.3c.1 0 .19.03.25.1l.36.29v-.06c-.01-.18.17-.35.36-.34.04 0 .11 0 .15.01h1.63c.18 0 .36-.01.55-.01.95-.01 1.98.11 2.74.71.05.04.07.05.09.07l.53.44c.59.5.9 1.25.9 2 0 .6-.15 1.19-.49 1.67.07-.05.16-.08.26-.08h.33c.02-.73.03-1.44.04-2.16v-.53c-.01-.28-.01-.54-.02-.81 0-.02-.02-.02-.04-.03l-.54-.44c-.08-.06-.12-.19-.12-.29v-.21c0-.18.16-.35.36-.34.05 0 .1 0 .15.01h1.63c.18 0 .36-.01.54-.01.95-.01 1.98.11 2.76.71.02.04.05.05.08.07l.54.44c.58.5.89 1.25.88 2 .02.78-.27 1.56-.84 2.1-.7.7-1.77.85-2.73.85-.12 0-.23 0-.35 0-.37 0-.72-.02-1.08-.02-.3 0-.6 0-.91.02-.05 0-.1 0-.16 0-.08 0-.17-.02-.22-.07l-.54-.46c-.1-.06-.15-.17-.13-.29v-.19c-.02-.05 0-.09.02-.13-.09.12-.17.2-.26.29-.72.7-1.77.85-2.74.85-.12 0-.24 0-.36 0-.35 0-.7-.02-1.07-.02-.3 0-.6 0-.91.02-.05 0-.11 0-.16 0-.08 0-.15-.02-.22-.07l-.13-.12c-.09.13-.25.19-.4.19h-.08c-.21 0-.42 0-.61-.02h-3.23c-.06.02-.11.02-.15.02-.07 0-.14 0-.2 0-.08 0-.18-.02-.24-.08l-.54-.45v-.01c-.1.11-.22.2-.36.27-.59.27-1.27.29-1.9.29-.07 0-.12 0-.19 0-.1 0-.2-.02-.31-.02-.2 0-.4-.02-.58-.02h-.8c-.04.02-.09.02-.15.02-.04 0-.1 0-.15 0-.1 0-.18-.02-.26-.08l-.53-.46c-.09-.07-.15-.16-.14-.28v-.17c-.01-.22.16-.37.36-.37h.28v-.03c.03-.56.02-1.1.03-1.65v-.13c-.06.11-.17.2-.3.19h-.04c-.23-.02-.47-.02-.7-.02-.46 0-.93 0-1.37.05-1.23 1.33-2.34 2.76-3.15 4.36-.05.1-.11.21-.18.3-.06.1-.17.17-.28.17-.07 0-.15-.02-.2-.08l-.55-.46c-.08-.05-.14-.15-.12-.25.06-.46.26-.9.47-1.32-.58.3-1.21.56-1.87.58-.33.01-.69-.1-.95-.33l-.53-.45c-.21-.18-.37-.42-.38-.73.02-.62.49-1.1.94-1.49.46-.38.97-.7 1.52-.98l-.12-.11c-.21-.16-.36-.39-.36-.67 0-.41.21-.78.47-1.09zm26.72 2.59c.01.5.01 1.03.02 1.55.4-.04.8-.26 1.04-.59.32-.4.47-.91.47-1.43 0-.43-.15-.87-.4-1.2-.27-.15-.56-.24-.86-.24-.09 0-.17-.01-.25 0-.01.03-.01.06-.01.07-.01.43 0 .88-.01 1.33zm3.49 1.9c-.01-.2.19-.36.37-.35h.25c.02-.63.03-1.28.03-1.91v-.51c0-.35-.01-.72-.01-1.1 0 0-.02 0-.03-.01l-.54-.45c-.07-.05-.12-.16-.12-.27v-.2c0-.2.18-.37.38-.36h.13c.37.01.72.01 1.08.01h.98c.05-.01.1-.01.15-.01.09 0 .16.02.21.08l.08.07c.07-.1.18-.16.31-.15h.06c.05.01.12.01.17.01h1.46c.12.01.21.07.3.12v.02l.54.44c.01.02.03.04.07.06.16.21.33.41.51.6.4.48.82.96 1.24 1.44.08.09.16.19.23.28 0-.34 0-.66-.02-.98 0-.23-.01-.45-.02-.66-.02-.02-.04-.04-.06-.04l-.55-.45c-.07-.06-.13-.19-.12-.3v-.18c-.01-.2.17-.37.37-.36.05 0 .08 0 .13.01h1.36c.05-.01.08-.01.12-.01h.01c.1 0 .18.02.26.08l.52.45c.08.06.14.17.13.3v.16c0 .04 0 .07-.01.11.11-.15.27-.29.4-.41.66-.56 1.52-.78 2.35-.78.56.01 1.1.09 1.6.33.01 0 .02-.03.03-.03.07-.08.2-.16.33-.16.08 0 .18.03.25.1l.53.44c.1.08.16.22.15.34l.12 1.46v.08c.01.18-.09.35-.27.39l-.2.04c.02-.01.05-.01.08-.01.09 0 .18.03.24.09l.55.45c.07.08.14.17.13.28v.18c.01.22-.17.38-.36.37h-.16v.9c0 .02.01.04.03.07.01.05.01.1.01.15.01.16-.11.3-.24.36-.04.03-.05.04-.08.05-.7.34-1.52.47-2.33.46-.78 0-1.6-.19-2.19-.7l-.55-.44c-.08-.07-.15-.15-.22-.22-.51-.52-.76-1.26-.78-1.99-.04.53-.05 1.05-.06 1.56v1.23c0 .05 0 .13-.02.19-.03.2-.21.36-.39.36s-.36-.05-.47-.16l-.55-.46s-.03-.02-.04-.04c-.35-.31-.66-.66-.98-1.01-.3-.34-.6-.67-.9-1.02-.13-.14-.26-.27-.39-.42-.1-.13-.21-.25-.32-.38v.45c0 .42.02.85.05 1.25.01.16.01.28.01.4.03.01.05.03.07.04l.53.45c.09.08.14.17.14.29v.17c0 .21-.18.39-.39.37-.05 0-.11 0-.17 0-.23-.02-.47-.02-.71-.02-.2 0-.4.02-.6.02-.08 0-.15 0-.23 0s-.16-.02-.21-.07l-.18-.14c-.06.13-.2.23-.34.21-.06 0-.1 0-.14 0-.32-.02-.66-.02-.97-.02-.37 0-.73 0-1.09.02-.05 0-.08 0-.12 0-.09 0-.18-.02-.26-.08l-.52-.45c-.09-.06-.15-.17-.14-.29v-.19zm2.98-.24.13.11c.04-.13.19-.22.34-.22h.19c.05-.13.06-.28.07-.42.05-.77.07-1.53.07-2.31v-.73c-.08 0-.15-.02-.22-.07l-.06-.06c-.08.09-.18.16-.31.16h-.21c0 .23 0 .44-.02.67 0 .31-.01.62-.01.93v.54c0 .32.01.62.01.92.02.17.02.33.02.48zm6.45-2.66c.07-.34.21-.65.39-.95-.05.04-.11.07-.18.07h-.12c-.01.03-.01.05-.02.1-.02.25-.04.52-.07.78zm2.34.91c.01.53.1 1.12.42 1.56.17.08.35.12.55.11.23 0 .46 0 .7-.09.02-.13.01-.29.02-.41v-.2l-.51-.41c-.09-.08-.14-.19-.13-.3v-.17c-.01-.21.17-.38.35-.37.05 0 .09 0 .14.01.32.01.67.01.99.01.28 0 .54 0 .8-.01-.07-.01-.13-.04-.17-.07l-.55-.46c-.06-.06-.09-.11-.13-.19v-.01c-.08-.25-.21-.5-.38-.71-.2-.11-.43-.17-.67-.17-.34 0-.68.17-.9.44-.35.39-.53.92-.53 1.44z"/><path d="m147.769 5.978c.01.5.01 1.03.02 1.55.4-.04.8-.26 1.06-.59.32-.4.46-.91.46-1.43 0-.43-.14-.87-.42-1.2-.25-.15-.54-.24-.85-.24-.08 0-.18-.01-.25 0-.01.03-.01.06-.01.07-.01.43-.01.88-.01 1.33zm-5.14.41v.1c0 .3.04.57.04.88 0 .06.02.12.02.17.17 0 .35 0 .53-.01.16-.03.3-.08.42-.17.11-.1.22-.2.32-.31l-.16.03c-.01.01-.05.01-.09.01-.07 0-.15-.03-.21-.08l-.53-.45c-.07-.05-.1-.1-.12-.16-.07-.01-.14-.01-.22-.01zm.04-1.46v-.01c.05-.08.1-.15.11-.25-.01-.2.16-.38.38-.37l.24.03h.04c.06 0 .11.04.16.08l.54.44c.08.07.12.18.12.29v.04c-.02.24-.02.47-.02.71s.02.51.03.76c.02.02.02.03.02.06v.01c.03-.03.05-.05.08-.09.08-.08.19-.14.28-.14.07 0 .14.02.19.06l.1.07c.03.01.06.02.08.05l.43.35c.02-.55.02-1.1.04-1.65v-.53c-.02-.28-.02-.54-.02-.81-.03-.02-.04-.02-.06-.03l-.28-.24c.01.06.02.1.02.13.09.24.13.44.2.67.01.04.04.08.04.15 0 .13-.08.24-.2.31l-.15.07c-.05.02-.1.02-.16.02-.09 0-.17-.02-.25-.08l-.53-.46c-.03-.01-.05-.03-.07-.05-.08-.11-.19-.19-.29-.29-.11-.07-.26-.13-.4-.13l-.67-.03zm-5.27-.11c.14-.15.21-.37.21-.57-.01-.05-.01-.11-.02-.18-.05-.02-.11-.03-.15-.03h-.03c-.01.26-.01.52-.01.78zm0 1.49v1.1.15c.12-.03.22-.09.3-.19.13-.18.14-.4.16-.6 0-.13-.03-.29-.08-.4-.12-.04-.26-.06-.38-.06zm-7.59-.39c-1.04.23-1.99.86-2.69 1.64 1.01-.31 1.93-.89 2.77-1.56zm-.9-1.41c-.02.03-.06.05-.08.08.09.01.17.02.26.02.08 0 .17-.01.25-.02.03-.01.07-.02.1-.02.1 0 .16.03.21.07l.28.25c.1-.04.18-.08.29-.11l-.48-.39c-.13-.1-.2-.24-.25-.41-.21.17-.4.35-.58.53zm-1.49-1.12c.32-.33.7-.59 1.1-.82.82-.45 1.75-.76 2.69-.78.31-.03.64.06.87.25l.53.45c.16.12.26.29.28.51.02.05.02.09.02.13 0 .28-.1.52-.26.73.16.03.32.11.46.21l.54.45c.05.05.09.1.13.15.22.05.43.1.62.17.04.01.07.04.09.05l.53.46c.04.03.08.07.1.12v-.47c0-.32-.01-.65-.02-.97-.01-.02-.01-.02-.03-.02l-.52-.45c-.08-.06-.14-.17-.14-.27v-.2c-.01-.19.18-.38.38-.37.05 0 .11 0 .15.01h1.41c.28 0 .55-.01.83-.01.5.01 1 .01 1.44.24.1.04.18.1.27.16l.54.46c.31.25.5.66.48 1.06.02.47-.23.86-.59 1.12l.35.29c.36.29.6.7.58 1.21-.01.09-.03.18-.04.27h.16v-2.38c0-.38-.01-.78-.01-1.17l-.53-.42c-.09-.06-.13-.19-.13-.31v-.16c0-.19.16-.37.36-.36h.22c.31.01.61.01.9.01l2.66-.01h.3c.1 0 .19.03.25.1l.36.29v-.06c-.01-.18.17-.35.36-.34.04 0 .11 0 .15.01h1.63c.18 0 .36-.01.55-.01.95-.01 1.98.11 2.74.71.05.04.07.05.09.07l.53.44c.59.5.9 1.25.9 2 0 .6-.15 1.19-.49 1.67.07-.05.16-.08.26-.08h.33c.02-.73.03-1.44.04-2.16v-.53c-.01-.28-.01-.54-.02-.81 0-.02-.02-.02-.04-.03l-.54-.44c-.08-.06-.12-.19-.12-.29v-.21c0-.18.16-.35.36-.34.05 0 .1 0 .15.01h1.63c.18 0 .36-.01.54-.01.95-.01 1.98.11 2.76.71.02.04.05.05.08.07l.54.44c.58.5.89 1.25.88 2 .02.78-.27 1.56-.84 2.1-.7.7-1.77.85-2.73.85-.12 0-.23 0-.35 0-.37 0-.72-.02-1.08-.02-.3 0-.6 0-.91.02-.05 0-.1 0-.16 0-.08 0-.17-.02-.22-.07l-.54-.46c-.1-.06-.15-.17-.13-.29v-.19c-.02-.05 0-.09.02-.13-.09.12-.17.2-.26.29-.72.7-1.77.85-2.74.85-.12 0-.24 0-.36 0-.35 0-.7-.02-1.07-.02-.3 0-.6 0-.91.02-.05 0-.11 0-.16 0-.08 0-.15-.02-.22-.07l-.13-.12c-.09.13-.25.19-.4.19h-.08c-.21 0-.42 0-.61-.02h-3.23c-.06.02-.11.02-.15.02-.07 0-.14 0-.2 0-.08 0-.18-.02-.24-.08l-.54-.45v-.01c-.1.11-.22.2-.36.27-.59.27-1.27.29-1.9.29-.07 0-.12 0-.19 0-.1 0-.2-.02-.31-.02-.2 0-.4-.02-.58-.02h-.8c-.04.02-.09.02-.15.02-.04 0-.1 0-.15 0-.1 0-.18-.02-.26-.08l-.53-.46c-.09-.07-.15-.16-.14-.28v-.17c-.01-.22.16-.37.36-.37h.28v-.03c.03-.56.02-1.1.03-1.65v-.13c-.06.11-.17.2-.3.19h-.04c-.23-.02-.47-.02-.7-.02-.46 0-.93 0-1.37.05-1.23 1.33-2.34 2.76-3.15 4.36-.05.1-.11.21-.18.3-.06.1-.17.17-.28.17-.07 0-.15-.02-.2-.08l-.55-.46c-.08-.05-.14-.15-.12-.25.06-.46.26-.9.47-1.32-.58.3-1.21.56-1.87.58-.33.01-.69-.1-.95-.33l-.53-.45c-.21-.18-.37-.42-.38-.73.02-.62.49-1.1.94-1.49.46-.38.97-.7 1.52-.98l-.12-.11c-.21-.16-.36-.39-.36-.67 0-.41.21-.78.47-1.09zm26.72 2.59c.01.5.01 1.03.02 1.55.4-.04.8-.26 1.04-.59.32-.4.47-.91.47-1.43 0-.43-.15-.87-.4-1.2-.27-.15-.56-.24-.86-.24-.09 0-.17-.01-.25 0-.01.03-.01.06-.01.07-.01.43 0 .88-.01 1.33zm3.49 1.9c-.01-.2.19-.36.37-.35h.25c.02-.63.03-1.28.03-1.91v-.51c0-.35-.01-.72-.01-1.1 0 0-.02 0-.03-.01l-.54-.45c-.07-.05-.12-.16-.12-.27v-.2c0-.2.18-.37.38-.36h.13c.37.01.72.01 1.08.01h.98c.05-.01.1-.01.15-.01.09 0 .16.02.21.08l.08.07c.07-.1.18-.16.31-.15h.06c.05.01.12.01.17.01h1.46c.12.01.21.07.3.12v.02l.54.44c.01.02.03.04.07.06.16.21.33.41.51.6.4.48.82.96 1.24 1.44.08.09.16.19.23.28 0-.34 0-.66-.02-.98 0-.23-.01-.45-.02-.66-.02-.02-.04-.04-.06-.04l-.55-.45c-.07-.06-.13-.19-.12-.3v-.18c-.01-.2.17-.37.37-.36.05 0 .08 0 .13.01h1.36c.05-.01.08-.01.12-.01h.01c.1 0 .18.02.26.08l.52.45c.08.06.14.17.13.3v.16c0 .04 0 .07-.01.11.11-.15.27-.29.4-.41.66-.56 1.52-.78 2.35-.78.56.01 1.1.09 1.6.33.01 0 .02-.03.03-.03.07-.08.2-.16.33-.16.08 0 .18.03.25.1l.53.44c.1.08.16.22.15.34l.12 1.46v.08c.01.18-.09.35-.27.39l-.2.04c.02-.01.05-.01.08-.01.09 0 .18.03.24.09l.55.45c.07.08.14.17.13.28v.18c.01.22-.17.38-.36.37h-.16v.9c0 .02.01.04.03.07.01.05.01.1.01.15.01.16-.11.3-.24.36-.04.03-.05.04-.08.05-.7.34-1.52.47-2.33.46-.78 0-1.6-.19-2.19-.7l-.55-.44c-.08-.07-.15-.15-.22-.22-.51-.52-.76-1.26-.78-1.99-.04.53-.05 1.05-.06 1.56v1.23c0 .05 0 .13-.02.19-.03.2-.21.36-.39.36s-.36-.05-.47-.16l-.55-.46s-.03-.02-.04-.04c-.35-.31-.66-.66-.98-1.01-.3-.34-.6-.67-.9-1.02-.13-.14-.26-.27-.39-.42-.1-.13-.21-.25-.32-.38v.45c0 .42.02.85.05 1.25.01.16.01.28.01.4.03.01.05.03.07.04l.53.45c.09.08.14.17.14.29v.17c0 .21-.18.39-.39.37-.05 0-.11 0-.17 0-.23-.02-.47-.02-.71-.02-.2 0-.4.02-.6.02-.08 0-.15 0-.23 0s-.16-.02-.21-.07l-.18-.14c-.06.13-.2.23-.34.21-.06 0-.1 0-.14 0-.32-.02-.66-.02-.97-.02-.37 0-.73 0-1.09.02-.05 0-.08 0-.12 0-.09 0-.18-.02-.26-.08l-.52-.45c-.09-.06-.15-.17-.14-.29v-.19zm2.98-.24.13.11c.04-.13.19-.22.34-.22h.19c.05-.13.06-.28.07-.42.05-.77.07-1.53.07-2.31v-.73c-.08 0-.15-.02-.22-.07l-.06-.06c-.08.09-.18.16-.31.16h-.21c0 .23 0 .44-.02.67 0 .31-.01.62-.01.93v.54c0 .32.01.62.01.92.02.17.02.33.02.48zm6.45-2.66c.07-.34.21-.65.39-.95-.05.04-.11.07-.18.07h-.12c-.01.03-.01.05-.02.1-.02.25-.04.52-.07.78zm2.34.91c.01.53.1 1.12.42 1.56.17.08.35.12.55.11.23 0 .46 0 .7-.09.02-.13.01-.29.02-.41v-.2l-.51-.41c-.09-.08-.14-.19-.13-.3v-.17c-.01-.21.17-.38.35-.37.05 0 .09 0 .14.01.32.01.67.01.99.01.28 0 .54 0 .8-.01-.07-.01-.13-.04-.17-.07l-.55-.46c-.06-.06-.09-.11-.13-.19v-.01c-.08-.25-.21-.5-.38-.71-.2-.11-.43-.17-.67-.17-.34 0-.68.17-.9.44-.35.39-.53.92-.53 1.44z" fill="none" stroke="#231f20" stroke-width=".26"/><path d="m132.009 5.208c-2.77 2.98-3.34 4.79-3.45 4.79-.02 0-.02-.01-.02-.02-.02-.37.93-2.42 2.24-4.09-.88.81-3.02 2.6-4.48 2.57-.46 0-1-.21-1.01-.74-.03-1 2.17-2.23 3.08-2.5-.4-.01-1.1-.24-1.12-.74-.02-1.18 2.49-2.38 3.96-2.38.33 0 .77.05.85.49.11.74-1.17 1.65-1.95 1.65-.08 0-.3-.14-.32-.38 0-.13.24-.27.32-.31-.01.04-.07.13-.07.16s.01.05.06.05c.29 0 1.65-.67 1.73-1.2.04-.25-.27-.33-.55-.33-.99 0-3.42 1.35-3.41 2.17.02.33.69.52 1.22.52.13 0 .33-.03.35-.03.07 0-.07.25-.12.26-1.21.14-3.14 1.54-3.31 2.34-.09.39.23.52.56.5 1.56-.11 3.69-1.82 4.6-2.64-.26.04-.51.1-.75.18 0 0-.03.01-.02.03-.06.02-.21.06-.26.06-.07 0-.37-.07-.37-.17-.02-.03 0-.08.04-.14.15-.18 1.04-.39 1.81-.43.41-.43.72-.7.93-.7.16 0 .38.12.46.25-.12.01-.32.16-.63.43 1.25.02 1.91.25 1.91.28 0 .01 0 0-.74 0-.71 0-1.03 0-1.54.07z" fill="#fff"/><path d="m135.429 5.848v-.85c0-.25 0-1.14-.01-1.25-.03-.42-.14-.44-.4-.44h-.24c-.05 0-.05 0-.05-.05v-.17c0-.03 0-.05.06-.05.09 0 .46.02 1.17.02.25 0 .7-.02 1.22-.02.55 0 1.03.04 1.29.18.45.22.58.56.58.99 0 .46-.29.92-1.1 1.17v.02c.93.22 1.44.65 1.44 1.4 0 .38-.23.91-.6 1.1-.31.14-.84.25-1.78.25-.07 0-.27-.01-.46-.02-.24-.02-.47-.02-.61-.02-.38 0-.62 0-.79 0-.17.02-.25.02-.29.02-.08 0-.11-.02-.11-.08v-.15c0-.05.03-.07.09-.07h.26c.24 0 .28-.08.31-.3.02-.16.02-1.1.02-1.68zm1.12-.3v1.4c0 .68.15.97.57.97.54 0 1.03-.26 1.03-1.15 0-.57-.27-.96-.67-1.11-.38-.13-.74-.11-.93-.11zm0-.79v.53c.3.03.79-.01 1.01-.18.26-.22.37-.55.37-.86 0-.27-.1-.55-.32-.7-.25-.22-.63-.28-.71-.28-.16 0-.32.01-.32.12-.03.16-.03.77-.03 1.37zm5.27-1.46-.03 2.08c.35 0 .68-.03.76-.03.14-.05.24-.12.37-.24.07-.11.17-.31.17-.44 0-.05.02-.07.05-.07l.22.02c.03.02.06.02.06.06-.03.12-.03.5-.03.74 0 .33.03.68.05.82 0 .04-.02.05-.06.07l-.2.02c-.02.01-.04-.01-.05-.06-.03-.11-.11-.27-.15-.35-.08-.15-.26-.24-.43-.26-.19-.03-.43-.04-.76-.04v.43c0 .38.04 1.07.04 1.2 0 .37.08.5.17.54.12.04.27.08.65.08.13 0 .44-.02.59-.04.17-.02.4-.08.59-.23.2-.15.62-.59.78-.75.02-.02.04-.05.06-.02l.13.07c.04 0 .04.02.04.05l-.35 1.08c-.02.06-.08.1-.16.1-.04 0-.22 0-.69-.02h-3.24c-.16.02-.27.02-.34.02-.05 0-.07-.02-.07-.08v-.15c0-.03.04-.07.08-.07h.22c.34 0 .38-.04.38-.3v-2.38c0-.59-.01-1.47-.02-1.54-.02-.24-.1-.3-.3-.3h-.3c-.02 0-.04-.01-.04-.06v-.16c0-.03.02-.04.05-.04.18 0 .44.01 1.12.01h2.66c.12 0 .27-.01.3-.01.04 0 .06.01.07.03.03.08.27 1.07.3 1.14.02.04.02.05-.02.08l-.12.05c-.03.02-.07 0-.08-.02-.04-.06-.73-.7-.9-.8-.17-.11-.38-.2-.57-.2l-1-.03zm3.96 2.07v-.53c0-.2-.01-1.21-.04-1.31-.02-.18-.12-.22-.24-.22h-.38c-.04 0-.05 0-.05-.04v-.21c0-.01.01-.02.04-.02.11 0 .43.02 1.18.02.22 0 .97-.02 1.15-.02 1.02 0 1.84.08 2.55.65.5.38.86.98.86 1.81 0 .82-.26 1.36-.75 1.87-.74.76-2.03.76-2.51.76-.13 0-1.01-.02-1.42-.02-.67 0-.97.02-1.08.02-.04 0-.06-.02-.06-.06v-.19c0-.03.04-.05.06-.05h.4c.15 0 .23-.05.24-.17.02-.14.05-1.75.05-2.29zm1.14-.35v.51c0 .09.01 1.3.02 1.76 0 .13.02.24.13.37.09.13.34.17.59.17.45 0 1.04-.2 1.43-.7.29-.36.54-.96.54-1.62 0-.59-.27-1.18-.61-1.57-.41-.41-1.07-.64-1.53-.64-.19 0-.31.01-.41.05-.12.06-.14.18-.15.32-.01.3-.01 1.23-.01 1.35zm5.23.35v-.53c0-.2-.02-1.21-.02-1.31-.03-.18-.14-.22-.27-.22h-.37c-.04 0-.07 0-.07-.04v-.21c0-.01.03-.02.06-.02.1 0 .43.02 1.18.02.21 0 .96-.02 1.14-.02 1.03 0 1.85.08 2.55.65.5.38.87.98.87 1.81 0 .82-.26 1.36-.77 1.87-.73.76-2.02.76-2.48.76-.13 0-1.02-.02-1.45-.02-.66 0-.94.02-1.05.02-.05 0-.08-.02-.08-.06v-.19c0-.03.03-.05.08-.05h.39c.14 0 .23-.05.24-.17.03-.14.05-1.75.05-2.29zm1.14-.35v.51c0 .09 0 1.3.01 1.76 0 .13.04.24.14.37.09.13.33.17.6.17.43 0 1.02-.2 1.41-.7.3-.36.54-.96.54-1.62 0-.59-.26-1.18-.61-1.57-.41-.41-1.07-.64-1.52-.64-.2 0-.32.01-.41.05-.11.06-.15.18-.16.32zm5.31.6v-.51c0-.16-.01-1.46-.03-1.54-.01-.18-.08-.26-.25-.26h-.35c-.05 0-.06 0-.06-.03v-.2c0-.03.01-.04.05-.04.09 0 .47.02 1.21.02.78 0 1.01-.02 1.13-.02.03 0 .05.02.05.05v.18c0 .04-.02.04-.07.04h-.21c-.19 0-.31.06-.31.2 0 .08-.03 1.64-.03 1.73v.55c0 .07.03 1.73.03 1.79 0 .22.12.25.25.25h.32c.04 0 .06.02.06.07v.19c0 .02-.02.04-.06.04-.09 0-.41-.02-1.12-.02-.79 0-1.12.02-1.21.02-.03 0-.06-.02-.06-.06v-.19c0-.03.03-.05.06-.05h.23c.15 0 .31-.02.34-.19.02-.11.03-1.64.03-2.02zm7.2 1.06v-.64c0-.64-.02-.99-.04-1.36 0-.27-.04-.97-.06-1.07-.05-.19-.22-.3-.4-.3h-.24c-.04 0-.04-.01-.04-.05v-.18c0-.03 0-.04.06-.04.08 0 .33.02.89.02.44 0 .65-.02.72-.02.06 0 .08.01.08.05v.17c0 .04-.02.05-.04.05h-.22c-.12 0-.2.13-.23.4-.05.47-.16 2.08-.16 3.03v1.22c0 .11-.02.23-.12.23-.11 0-.22-.04-.3-.12-.13-.1-.49-.49-.94-.99-.56-.6-1.16-1.3-1.3-1.45-.14-.13-1.17-1.37-1.35-1.62h-.07v1.46c0 .6.08 1.47.08 1.75.03.4.15.61.47.61h.19c.06 0 .07.04.07.07v.17c0 .04-.01.06-.07.06-.07 0-.52-.02-.89-.02-.23 0-.76.02-.83.02-.03 0-.04-.02-.04-.06v-.19c0-.01.01-.05.06-.05h.25c.18 0 .3-.22.33-.7.02-.12.08-1.27.08-2.33v-.65c0-.41-.3-.82-.66-.84h-.18c-.04 0-.06-.02-.06-.04v-.19c0-.03.02-.04.06-.04.03 0 .08.01.23.01.16 0 .4.01.78.01.28 0 .5-.01.58-.01.1 0 .16.01.22.08.05.03 1.53 1.77 1.75 2.02.11.13 1.22 1.45 1.3 1.53zm6.72-.2v.94c0 .1.04.16.04.22s-.05.09-.12.12c-.62.29-1.25.46-2.23.46-.77 0-1.66-.24-2.18-.81-.47-.5-.7-1.1-.7-1.96 0-.65.33-1.35.88-1.8.54-.46 1.23-.69 2.14-.69.77 0 1.34.18 1.58.34.1.05.14.03.18-.03l.09-.11c.04-.04.06-.07.11-.07.08 0 .08.05.08.13l.12 1.46c.01.09 0 .13-.02.14l-.22.04c-.03.02-.06-.01-.08-.06-.12-.36-.37-.82-.71-1.09-.29-.28-.68-.45-1.17-.45-.41 0-.81.11-1.15.53-.36.41-.61.99-.61 1.63 0 .85.25 1.59.67 1.97.34.33.64.49 1.15.49.39 0 .6-.03.85-.15.15-.07.17-.29.17-.67v-.51c0-.26-.07-.34-.26-.34h-.33c-.03 0-.04-.01-.04-.06v-.17c0-.04.01-.06.04-.06.07 0 .45.02 1.13.02.69 0 .98-.02 1.04-.02s.08.02.08.08v.16c0 .04-.02.05-.07.05h-.23c-.13 0-.23.06-.23.27z" fill="#fef7c4"/></svg>
