<svg xmlns="http://www.w3.org/2000/svg" fill-rule="evenodd" stroke-linejoin="round" stroke-miterlimit="2" clip-rule="evenodd" viewBox="0 0 512 512"><linearGradient id="a" x2="1" gradientTransform="scale(25.3132) rotate(8.489 -7.4 5.327)" gradientUnits="userSpaceOnUse"><stop offset="0" stop-color="#222357"/><stop offset="1" stop-color="#254aa5"/></linearGradient><clipPath id="b"><path d="M0 0h60v60H0z"/></clipPath><path fill="#ebebeb" d="M0 0h512v512H0z"/><g fill="#8d1b3d" fill-rule="nonzero"><path d="M211.387 246.325v36.641h16.95v-36.641h7.32v-12.186h-7.32V219.58h-16.95v14.559H193.63v-7.816c0-4.068 1.19-6.152 4.654-6.152.989 0 2.387.293 3.957.894v-13.174c-2.863-.593-5.247-.891-7.023-.891-12.288 0-18.53 5.744-18.53 17.131v10.008h-7.328v12.186h7.328v36.641h16.942v-36.641zM350.603 278.905c6.623 4.061 13.859 5.931 22.274 5.931 12.976 0 21.002-6.915 21.002-16.728 0-7.818-4.551-11.987-13.859-14.746-6.837-2.09-11.202-2.28-11.202-5.652 0-2.275 1.987-3.563 5.945-3.563 4.552 0 9.306 1.483 14.07 4.748l3.568-11.889c-6.743-2.963-13.086-4.446-19.524-4.446-12.771 0-19.803 6.738-19.803 15.651 0 7.431 4.654 11.881 14.751 14.556 6.444 1.686 10.411 1.686 10.411 5.741 0 2.581-2.284 4.062-6.642 4.062-5.944 0-12.381-2.376-17.424-6.827zM324.185 246.904c-6.479 0-11.736 5.265-11.736 11.745 0 6.482 5.257 11.726 11.736 11.726s11.734-5.244 11.734-11.726c0-6.48-5.255-11.745-11.734-11.745m26.155 11.745c0 14.427-11.719 26.138-26.155 26.138-14.438 0-26.156-11.711-26.156-26.138 0-14.45 11.718-26.152 26.156-26.152 14.436 0 26.155 11.702 26.155 26.152M279.916 258.657c0 6.87-5.58 12.45-12.45 12.45-6.889 0-12.456-5.58-12.456-12.45 0-6.884 5.567-12.454 12.456-12.454 6.87 0 12.45 5.57 12.45 12.454m-40.344 45.915h16.44v-18.057c0-2.976-.089-5.779-.483-8.556 4.347 7.333 14.502 6.877 14.773 6.877 11.338 0 24.984-10.189 24.984-26.119 0-15.091-12.306-26.152-25.018-26.152-5.313 0-9.801 1.062-14.846 5.953v-4.356h-15.85zM169.487 261.973c1.198-18.781-11.549-29.413-25.484-29.413-16.25 0-26.503 11.783-26.503 26.552 0 16.024 13.536 25.724 26.461 25.724 7.578 0 17.485-3.511 22.452-12.66l-12.687-5.741c-1.864 3.428-4.908 5.546-9.765 5.546-6.93 0-11.151-5.376-11.151-10.008zm-15.608-9.707h-20.487c.99-6.135 5.125-9.21 10.678-9.21 5.155 0 9.682 3.567 10.294 9.21"/><path d="M211.387 246.325v36.641h16.95v-36.641h7.32v-12.186h-7.32V219.58h-16.95v14.559H193.63v-7.816c0-4.068 1.19-6.152 4.654-6.152.989 0 2.387.293 3.957.894v-13.174c-2.863-.593-5.247-.891-7.023-.891-12.288 0-18.53 5.744-18.53 17.131v10.008h-7.328v12.186h7.328v36.641h16.942v-36.641z"/></g><g transform="translate(28.75 375.443) scale(1.81856)"><circle cx="30" cy="30" r="30" fill="#fff"/><path fill="url(#a)" d="M30.632 33.06c-.021-1.629 1.44-2.538 2.54-3.079 1.131-.554 1.511-.91 1.506-1.406-.008-.759-.902-1.094-1.738-1.107-1.458-.023-2.306.397-2.98.714l-.526-2.478c.677-.314 1.929-.588 3.228-.6 3.049 0 5.044 1.517 5.054 3.869.012 2.986-4.096 3.151-4.068 4.485.01.405.393.837 1.232.946.416.056 1.562.098 2.862-.505l.511 2.398a7.743 7.743 0 0 1-2.717.502c-2.87 0-4.888-1.538-4.904-3.739m12.524 3.533a1.323 1.323 0 0 1-1.235-.83L37.565 25.28h3.047l.606 1.689h3.724l.351-1.689h2.685l-2.343 11.313zm.426-3.056l.879-4.248h-2.408zm-16.644 3.056L24.536 25.28h2.903l2.401 11.313zm-4.295 0l-3.022-7.7-1.222 6.547c-.144.731-.71 1.153-1.339 1.153h-4.94l-.069-.329c1.014-.222 2.166-.579 2.864-.962.427-.234.549-.439.689-.994l2.316-9.028h3.068l4.704 11.313z" transform="matrix(1 0 0 -1 0 61.903)"/></g><g clip-path="url(#b)" transform="translate(374.136 375.443) scale(1.81856)"><circle cx="30" cy="30" r="30" fill="#fff"/><g fill="#006fcf"><path d="M54.858 36.243h-3.26v1.272h3.213c1.373 0 2.19-.836 2.19-2.026 0-1.135-.736-1.798-1.97-1.798h-1.472c-.364 0-.618-.236-.618-.608 0-.382.254-.636.618-.636h2.76l.564-1.29h-3.279c-1.372 0-2.189.836-2.189 1.98 0 1.172.773 1.844 1.98 1.844h1.463c.362 0 .626.236.626.618 0 .39-.264.644-.626.644zm-6.049 0h-3.26v1.272h3.214c1.372 0 2.19-.836 2.19-2.026 0-1.135-.736-1.798-1.972-1.798h-1.47c-.364 0-.618-.236-.618-.608 0-.382.254-.636.617-.636h2.761l.563-1.29h-3.279c-1.37 0-2.189.836-2.189 1.98 0 1.172.773 1.844 1.981 1.844h1.462c.363 0 .626.236.626.618 0 .39-.263.644-.626.644zm-4.187-3.796v-1.29h-5.086v6.358h5.086v-1.281h-3.56v-1.28h3.478v-1.272h-3.478v-1.235zm-8.519.009c.545 0 .836.354.836.79 0 .436-.29.78-.836.78h-1.789v-1.57zm-1.789 2.77h.718l1.898 2.289h1.898l-2.116-2.343c1.081-.201 1.725-.981 1.725-1.998 0-1.19-.844-2.017-2.197-2.017h-3.452v6.358h1.526zm-3.887-1.935c0 .428-.272.782-.809.782h-1.825V32.51h1.825c.537 0 .81.345.81.78zm-4.16-2.134v6.358h1.526v-2.1h1.916c1.39 0 2.252-.906 2.252-2.133 0-1.262-.844-2.125-2.197-2.125zm-2.243 6.358h1.907l-2.552-3.206 2.534-3.152h-1.852l-1.563 2.017-1.553-2.017h-1.907l2.543 3.179-2.534 3.179H20.9l1.562-2.044zm-5.295-5.068v-1.29h-5.086v6.358h5.086v-1.281h-3.56v-1.28h3.48v-1.272h-3.48v-1.235zM48.236 25.039l-.018-.527.318.527 2.434 3.805h1.78v-6.358h-1.489v3.679l.018.472-.28-.472-2.382-3.68h-1.87v6.359h1.49zm-6.084-.182l.463-1.19.462 1.19.564 1.408h-2.043zm2.524 3.987h1.716l-2.714-6.358H41.67l-2.724 6.358h1.625l.536-1.362h3.024zm-6.657 0h.082l.626-1.353h-.463c-1.044 0-1.662-.654-1.662-1.78v-.091c0-1.008.554-1.762 1.644-1.762H39.9v-1.372h-1.78c-1.96 0-3.033 1.318-3.033 3.125v.109c0 1.889 1.1 3.115 2.933 3.124zm-5.422 0h1.526V22.486h-1.526zm-3.206-5.058c.545 0 .836.354.836.79s-.29.78-.836.78h-1.789v-1.57zm-1.789 2.77h.718l1.898 2.288h1.898L30 26.5c1.081-.2 1.726-.981 1.726-1.998 0-1.19-.845-2.017-2.198-2.017h-3.452v6.358h1.526zm-2.642-2.78v-1.29h-5.086v6.358h5.086v-1.3H21.4v-1.261h3.478v-1.271H21.4v-1.236zm-12.652.727l-.036-1.716 1.762 6.057h1.38l1.762-6.021-.036 1.67v4.35h1.48v-6.357h-2.688l-1.208 4.505-1.217-4.505h-2.679v6.358h1.48zm-6.076.354l.464-1.19.463 1.19.563 1.408H5.678zm2.525 3.987h1.717l-2.716-6.358H5.751l-2.725 6.358h1.626l.536-1.362h3.024z"/></g></g><circle cx="256" cy="430" r="54.557" fill="#fff"/><path fill="#f79f1a" d="M288.687 430.264c0 11.19-9.055 20.262-20.224 20.262-11.172 0-20.226-9.073-20.226-20.262 0-11.192 9.054-20.265 20.226-20.265 11.17 0 20.224 9.073 20.224 20.265z"/><path fill="#ea001b" d="M263.736 430.264c0 11.19-9.054 20.262-20.224 20.262s-20.224-9.073-20.224-20.262c0-11.192 9.054-20.265 20.224-20.265s20.224 9.073 20.224 20.265z"/><path fill="#ff5f01" d="M255.987 414.311a20.238 20.238 0 0 0-7.749 15.95c0 6.475 3.03 12.243 7.75 15.953a20.243 20.243 0 0 0 7.746-15.952c0-6.476-3.028-12.24-7.747-15.95z"/></svg>